<svg width="14" height="14" viewBox="0 0 14 14" fill="none" xmlns="http://www.w3.org/2000/svg">
<path d="M9.87109 10.8281C9.56905 10.8281 9.32422 11.073 9.32422 11.375V12.9062H1.50391V1.09375H9.32422V2.625C9.32422 2.92704 9.56905 3.17188 9.87109 3.17188C10.1731 3.17188 10.418 2.92704 10.418 2.625V0.546875C10.418 0.244836 10.1731 0 9.87109 0H0.957031C0.654992 0 0.410156 0.244836 0.410156 0.546875V13.4531C0.410156 13.7552 0.654992 14 0.957031 14H9.87109C10.1731 14 10.418 13.7552 10.418 13.4531V11.375C10.418 11.073 10.1731 10.8281 9.87109 10.8281Z" fill="#1A1A1A"/>
<path d="M13.4296 6.61329L11.9602 5.14383C11.7466 4.93025 11.4004 4.93028 11.1868 5.14383C10.9732 5.35739 10.9732 5.70367 11.1868 5.91725L11.7227 6.45311L7.19241 6.45308C6.8904 6.45308 6.64554 6.69792 6.64554 6.99996C6.64554 7.302 6.89037 7.54683 7.19241 7.54683L11.7227 7.54686L11.1868 8.08277C10.9732 8.2963 10.9732 8.64258 11.1868 8.85616C11.4004 9.06975 11.7466 9.06969 11.9602 8.85614L13.4297 7.38668C13.4297 7.38663 13.4297 7.38657 13.4298 7.38654C13.5398 7.27643 13.5859 7.14915 13.5898 6.99999C13.5898 6.85255 13.5272 6.7108 13.4296 6.61329Z" fill="#1A1A1A"/>
</svg>
