<svg width="18" height="18" viewBox="0 0 18 18" fill="none" xmlns="http://www.w3.org/2000/svg">
<g clip-path="url(#clip0)">
<path fill-rule="evenodd" clip-rule="evenodd" d="M16.0218 11.0682C16.0218 11.0682 17.4771 12.5055 17.8371 13.1706C17.8441 13.1802 17.8496 13.1908 17.8533 13.2021C18 13.4478 18.036 13.6404 17.964 13.7826C17.8425 14.0175 17.4312 14.1354 17.2917 14.1453H14.7195C14.5404 14.1453 14.1678 14.0985 13.7142 13.7853C13.3677 13.5432 13.023 13.1445 12.6891 12.7548C12.1905 12.1761 11.7594 11.6739 11.3229 11.6739C11.2678 11.6738 11.213 11.6829 11.1609 11.7009C10.8306 11.8053 10.4112 12.276 10.4112 13.5297C10.4112 13.9221 10.1016 14.1453 9.88469 14.1453H8.70659C8.30519 14.1453 6.21539 14.0049 4.36229 12.051C2.09159 9.65881 0.0521895 4.86001 0.0323895 4.81771C-0.0945105 4.50721 0.171889 4.33801 0.459889 4.33801H3.05729C3.40559 4.33801 3.51899 4.54861 3.59819 4.73761C3.68999 4.95451 4.03019 5.82211 4.58819 6.79681C5.49179 8.38261 6.04709 9.02791 6.49079 9.02791C6.57415 9.02815 6.6561 9.00642 6.72839 8.96491C7.30799 8.64631 7.19999 6.57631 7.17299 6.14971C7.17299 6.06691 7.17209 5.22541 6.87509 4.81861C6.66269 4.52701 6.30089 4.41361 6.08219 4.37221C6.14069 4.28761 6.26489 4.15801 6.42419 4.08151C6.82109 3.88351 7.53839 3.85471 8.25029 3.85471H8.64539C9.41759 3.86551 9.61739 3.91501 9.89819 3.98611C10.4634 4.12111 10.4742 4.48741 10.4247 5.73481C10.4103 6.09121 10.395 6.49261 10.395 6.96511C10.395 7.06591 10.3905 7.17841 10.3905 7.29271C10.3734 7.93261 10.3509 8.65351 10.8027 8.94961C10.8613 8.98611 10.929 9.00544 10.998 9.00541C11.1546 9.00541 11.6235 9.00541 12.8952 6.82291C13.4532 5.85901 13.8852 4.72231 13.9149 4.63681C13.9401 4.58911 14.0157 4.45501 14.1075 4.40101C14.1728 4.36626 14.2459 4.34891 14.3199 4.35061H17.3754C17.7084 4.35061 17.9343 4.40101 17.9784 4.52701C18.0522 4.73131 17.964 5.35501 16.569 7.24141C16.3341 7.55551 16.128 7.82731 15.9471 8.06491C14.6826 9.72451 14.6826 9.80821 16.0218 11.0682V11.0682Z" fill="#1A1A1A"/>
</g>
<defs>
<clipPath id="clip0">
<rect width="18" height="18" fill="white"/>
</clipPath>
</defs>
</svg>
