<svg width="18" height="18" viewBox="0 0 18 18" fill="none" xmlns="http://www.w3.org/2000/svg">
<path fill-rule="evenodd" clip-rule="evenodd" d="M8.99999 2.10001C5.18923 2.10001 2.09999 5.18925 2.09999 9.00001C2.09999 12.8108 5.18923 15.9 8.99999 15.9C12.8108 15.9 15.9 12.8108 15.9 9.00001C15.9 5.18925 12.8108 2.10001 8.99999 2.10001ZM0.899994 9.00001C0.899994 4.5265 4.52649 0.900009 8.99999 0.900009C13.4735 0.900009 17.1 4.5265 17.1 9.00001C17.1 13.4735 13.4735 17.1 8.99999 17.1C4.52649 17.1 0.899994 13.4735 0.899994 9.00001Z" fill="#1A1A1A"/>
<path fill-rule="evenodd" clip-rule="evenodd" d="M0.899994 8.99999C0.899994 8.66862 1.16862 8.39999 1.49999 8.39999H16.5C16.8314 8.39999 17.1 8.66862 17.1 8.99999C17.1 9.33137 16.8314 9.6 16.5 9.6H1.49999C1.16862 9.6 0.899994 9.33137 0.899994 8.99999Z" fill="#1A1A1A"/>
<path fill-rule="evenodd" clip-rule="evenodd" d="M6.60013 9.00001C6.65297 11.4036 7.50046 13.7154 8.99999 15.5788C10.4995 13.7154 11.347 11.4036 11.3999 9.00001C11.347 6.59637 10.4995 4.28458 8.99999 2.42121C7.50046 4.28458 6.65297 6.59637 6.60013 9.00001ZM8.99999 1.50001L8.55699 1.09535C6.58294 3.2565 5.46109 6.06113 5.40012 8.98751C5.39995 8.99584 5.39995 9.00417 5.40012 9.01251C5.46109 11.9389 6.58294 14.7435 8.55699 16.9047C8.67066 17.0291 8.83144 17.1 8.99999 17.1C9.16855 17.1 9.32932 17.0291 9.443 16.9047C11.417 14.7435 12.5389 11.9389 12.5999 9.01251C12.6 9.00417 12.6 8.99584 12.5999 8.98751C12.5389 6.06113 11.417 3.2565 9.443 1.09535L8.99999 1.50001Z" fill="#1A1A1A"/>
</svg>
