<svg width="12" height="16" viewBox="0 0 12 16" fill="none" xmlns="http://www.w3.org/2000/svg">
<path d="M11.4563 4.2312L7.51875 0.293704C7.46925 0.238743 7.40841 0.195189 7.34042 0.166053C7.27244 0.136916 7.19894 0.122894 7.125 0.124954H1.5C1.20191 0.125844 0.916274 0.244657 0.705488 0.455442C0.494703 0.666228 0.37589 0.951859 0.375 1.24995V14.75C0.37589 15.048 0.494703 15.3337 0.705488 15.5445C0.916274 15.7553 1.20191 15.8741 1.5 15.875H10.5C10.7981 15.8741 11.0837 15.7553 11.2945 15.5445C11.5053 15.3337 11.6241 15.048 11.625 14.75V4.62495C11.6271 4.55102 11.613 4.47752 11.5839 4.40953C11.5548 4.34155 11.5112 4.2807 11.4563 4.2312ZM7.125 1.47495L10.275 4.62495H7.125V1.47495ZM10.5 14.75H1.5V1.24995H6V4.62495C6.00089 4.92305 6.1197 5.20868 6.33049 5.41947C6.54127 5.63025 6.82691 5.74906 7.125 5.74995H10.5V14.75Z" fill="#1A1A1A"/>
</svg>
