<svg width="16" height="16" viewBox="0 0 16 16" fill="none" xmlns="http://www.w3.org/2000/svg">
<path fill-rule="evenodd" clip-rule="evenodd" d="M7.55001 1.11852C3.998 1.11852 1.11852 3.998 1.11852 7.55001C1.11852 11.102 3.998 13.9815 7.55001 13.9815C11.102 13.9815 13.9815 11.102 13.9815 7.55001C13.9815 3.998 11.102 1.11852 7.55001 1.11852ZM0 7.55001C0 3.38026 3.38026 0 7.55001 0C11.7198 0 15.1 3.38026 15.1 7.55001C15.1 11.7198 11.7198 15.1 7.55001 15.1C3.38026 15.1 0 11.7198 0 7.55001Z" fill="#768989"/>
<path fill-rule="evenodd" clip-rule="evenodd" d="M10.7418 7.94557C10.5234 8.16398 10.1693 8.16398 9.95086 7.94557L7.55002 5.54473L5.14917 7.94557C4.93077 8.16398 4.57666 8.16398 4.35826 7.94557C4.13986 7.72717 4.13986 7.37306 4.35826 7.15466L7.15456 4.35836C7.37297 4.13995 7.72707 4.13995 7.94547 4.35836L10.7418 7.15466C10.9602 7.37306 10.9602 7.72717 10.7418 7.94557Z" fill="#768989"/>
<path fill-rule="evenodd" clip-rule="evenodd" d="M7.54999 10.9055C7.24112 10.9055 6.99073 10.6551 6.99073 10.3463L6.99073 4.75366C6.99073 4.44478 7.24112 4.1944 7.54999 4.1944C7.85886 4.1944 8.10925 4.44478 8.10925 4.75366L8.10925 10.3463C8.10925 10.6551 7.85886 10.9055 7.54999 10.9055Z" fill="#1A1A1A"/>
</svg>
