<svg width="18" height="18" viewBox="0 0 18 18" fill="none" xmlns="http://www.w3.org/2000/svg">
<path fill-rule="evenodd" clip-rule="evenodd" d="M5.17574 7.17574C5.41005 6.94142 5.78995 6.94142 6.02426 7.17574L9.17573 10.3272C9.41005 10.5615 9.41005 10.9414 9.17573 11.1757C8.94142 11.41 8.56152 11.41 8.32721 11.1757L5.17574 8.02426C4.94142 7.78995 4.94142 7.41005 5.17574 7.17574Z" fill="#1A1A1A"/>
<path fill-rule="evenodd" clip-rule="evenodd" d="M8.32721 11.1757C8.09289 10.9414 8.09289 10.5615 8.32721 10.3272L11.4787 7.17574C11.713 6.94142 12.0929 6.94142 12.3272 7.17574C12.5615 7.41005 12.5615 7.78995 12.3272 8.02426L9.17573 11.1757C8.94142 11.41 8.56152 11.41 8.32721 11.1757Z" fill="#1A1A1A"/>
</svg>
