<svg width="18" height="18" viewBox="0 0 18 18" fill="none" xmlns="http://www.w3.org/2000/svg">
<path fill-rule="evenodd" clip-rule="evenodd" d="M12.3272 11.1758C12.0929 11.4101 11.713 11.4101 11.4787 11.1758L8.32719 8.02435C8.09288 7.79004 8.09288 7.41014 8.32719 7.17583C8.56151 6.94151 8.94141 6.94151 9.17572 7.17583L12.3272 10.3273C12.5615 10.5616 12.5615 10.9415 12.3272 11.1758Z" fill="#1A1A1A"/>
<path fill-rule="evenodd" clip-rule="evenodd" d="M9.17572 7.17583C9.41004 7.41014 9.41004 7.79004 9.17572 8.02435L6.02425 11.1758C5.78994 11.4101 5.41004 11.4101 5.17572 11.1758C4.94141 10.9415 4.94141 10.5616 5.17572 10.3273L8.32719 7.17583C8.56151 6.94151 8.94141 6.94151 9.17572 7.17583Z" fill="#1A1A1A"/>
</svg>
