<svg width="18" height="18" viewBox="0 0 18 18" fill="none" xmlns="http://www.w3.org/2000/svg">
<path d="M9 2C5.13438 2 2 5.13438 2 9C2 12.8656 5.13438 16 9 16C12.8656 16 16 12.8656 16 9C16 5.13438 12.8656 2 9 2ZM9 14.8125C5.79063 14.8125 3.1875 12.2094 3.1875 9C3.1875 7.60938 3.67656 6.33125 4.49219 5.33125L12.6687 13.5078C11.6687 14.3234 10.3906 14.8125 9 14.8125ZM13.5078 12.6687L5.33125 4.49219C6.33125 3.67656 7.60938 3.1875 9 3.1875C12.2094 3.1875 14.8125 5.79063 14.8125 9C14.8125 10.3906 14.3234 11.6687 13.5078 12.6687Z" fill="#1A1A1A"/>
</svg>
