<svg width="20" height="14" viewBox="0 0 20 14" fill="none" xmlns="http://www.w3.org/2000/svg">
<path d="M15.675 0.466675V2.99167H20V0.466675H15.675ZM5.225 3.98334V6.50584H9.54917V3.98334H5.22417H5.225ZM15.675 3.98334V6.50584H20V3.98334H15.675ZM5.225 7.49501V10.0175H9.54917V7.49501H5.22417H5.225ZM10.4508 7.49501V10.0175H14.7758V7.49501H10.4508ZM15.6758 7.49501V10.0175H20V7.49501H15.675H15.6758ZM0 11.0083V13.5325H4.325V11.0075H0V11.0083ZM5.225 11.0083V13.5325H9.54917V11.0075H5.22417L5.225 11.0083ZM10.4508 11.0083V13.5325H14.7758V11.0075H10.4508V11.0083ZM15.6758 11.0083V13.5325H20V11.0075H15.675L15.6758 11.0083Z" fill="url(#paint0_linear)"/>
<defs>
<linearGradient id="paint0_linear" x1="20" y1="1" x2="-1" y2="14" gradientUnits="userSpaceOnUse">
<stop stop-color="#1EAA59"/>
<stop offset="0.286458" stop-color="#1F4AC2"/>
<stop offset="0.4573" stop-color="#AF0D84"/>
<stop offset="0.71875" stop-color="#E06137"/>
<stop offset="1" stop-color="#F58A1A"/>
</linearGradient>
</defs>
</svg>
