<svg width="28" height="28" viewBox="0 0 28 28" fill="none" xmlns="http://www.w3.org/2000/svg">
<rect width="28" height="28" rx="12" fill="url(#paint0_linear)"/>
<path d="M12.8 7C12.4868 7 12.164 7.10792 11.9372 7.32842C11.711 7.54833 11.6 7.86217 11.6 8.16667V8.75H8V9.91667H8.6V19.25C8.6 20.2096 9.413 21 10.4 21H17.6C18.587 21 19.4 20.2096 19.4 19.25V9.91667H20V8.75H16.4V8.16667C16.4 7.86217 16.289 7.54833 16.0622 7.32783C15.836 7.1085 15.5138 7 15.2 7H12.8ZM12.8 8.16667H15.2V8.75H12.8V8.16667ZM9.8 9.91667H18.2V19.25C18.2 19.5738 17.933 19.8333 17.6 19.8333H10.4C10.067 19.8333 9.8 19.5738 9.8 19.25V9.91667ZM11.8727 11.6667V18.0833H13.0727V11.6667H11.8727ZM14.9273 11.6667V18.0833H16.1273V11.6667H14.9273Z" fill="#1A1A1A"/>
<defs>
<linearGradient id="paint0_linear" x1="28" y1="14.1772" x2="-1.86318e-07" y2="14.1772" gradientUnits="userSpaceOnUse">
<stop stop-color="#C0E8FF"/>
<stop offset="1" stop-color="#D1FFD5"/>
</linearGradient>
</defs>
</svg>
