<svg width="12" height="14" viewBox="0 0 12 14" fill="none" xmlns="http://www.w3.org/2000/svg">
<path d="M4.8 0C4.4868 0 4.164 0.107917 3.9372 0.328417C3.711 0.548333 3.6 0.862167 3.6 1.16667V1.75H0V2.91667H0.6V12.25C0.6 13.2096 1.413 14 2.4 14H9.6C10.587 14 11.4 13.2096 11.4 12.25V2.91667H12V1.75H8.4V1.16667C8.4 0.862167 8.289 0.548333 8.0622 0.327833C7.836 0.1085 7.5138 0 7.2 0H4.8ZM4.8 1.16667H7.2V1.75H4.8V1.16667ZM1.8 2.91667H10.2V12.25C10.2 12.5738 9.933 12.8333 9.6 12.8333H2.4C2.067 12.8333 1.8 12.5738 1.8 12.25V2.91667ZM3.87273 4.66667V11.0833H5.07273V4.66667H3.87273ZM6.92727 4.66667V11.0833H8.12727V4.66667H6.92727Z" fill="#1A1A1A"/>
</svg>
