<svg width="16" height="15" viewBox="0 0 16 15" fill="none" xmlns="http://www.w3.org/2000/svg">
<path fill-rule="evenodd" clip-rule="evenodd" d="M11.9336 0.613242C12.1386 0.408216 12.471 0.408216 12.676 0.613242L15.137 3.07418C15.342 3.2792 15.342 3.61162 15.137 3.81664L5.29322 13.6604C5.22537 13.7282 5.14357 13.7736 5.05706 13.7966L1.6209 14.7783C1.43757 14.8307 1.24026 14.7796 1.10544 14.6448C0.970623 14.5099 0.919494 14.3126 0.971873 14.1293L1.95363 10.6932C1.97657 10.6066 2.02197 10.5248 2.08982 10.457L11.9336 0.613242ZM2.72073 11.8304L3.91984 13.0295L2.24108 13.5091L2.72073 11.8304ZM4.92199 12.5467L3.20351 10.8282L10.336 3.69568L12.0545 5.41416L4.92199 12.5467ZM12.797 4.6717L11.0785 2.95322L12.3048 1.72693L14.0233 3.44541L12.797 4.6717Z" fill="#1A1A1A"/>
</svg>
