<svg width="28" height="28" viewBox="0 0 28 28" fill="none" xmlns="http://www.w3.org/2000/svg">
<rect width="28" height="28" rx="12" fill="url(#paint0_linear)"/>
<path fill-rule="evenodd" clip-rule="evenodd" d="M17.9336 7.61312C18.1386 7.40809 18.471 7.40809 18.676 7.61312L21.137 10.0741C21.342 10.2791 21.342 10.6115 21.137 10.8165L11.2932 20.6603C11.2254 20.7281 11.1436 20.7735 11.0571 20.7965L7.6209 21.7782C7.43757 21.8306 7.24026 21.7795 7.10544 21.6446C6.97062 21.5098 6.91949 21.3125 6.97187 21.1292L7.95363 17.693C7.97657 17.6065 8.02197 17.5247 8.08982 17.4569L17.9336 7.61312ZM8.72073 18.8302L9.91984 20.0294L8.24108 20.509L8.72073 18.8302ZM10.922 19.5466L9.20351 17.8281L16.336 10.6956L18.0545 12.414L10.922 19.5466ZM18.797 11.6716L17.0785 9.9531L18.3048 8.72681L20.0233 10.4453L18.797 11.6716Z" fill="#1A1A1A"/>
<defs>
<linearGradient id="paint0_linear" x1="28" y1="14.1772" x2="-1.86318e-07" y2="14.1772" gradientUnits="userSpaceOnUse">
<stop stop-color="#C0E8FF"/>
<stop offset="1" stop-color="#D1FFD5"/>
</linearGradient>
</defs>
</svg>
