<svg width="20" height="20" viewBox="0 0 20 20" fill="none" xmlns="http://www.w3.org/2000/svg">
<path d="M6.875 18.8438V14.5312L3.65625 16.9062C4.5625 17.75 5.65625 18.4063 6.875 18.8438Z" fill="#2A5F9E"/>
<path d="M13.125 18.8438C14.3438 18.4062 15.4375 17.75 16.3438 16.9062L13.125 14.5V18.8438Z" fill="#2A5F9E"/>
<path d="M1.15625 13.125C1.25 13.4375 1.375 13.7188 1.53125 14.0312L2.75 13.125H1.15625Z" fill="#2A5F9E"/>
<path d="M17.25 13.125L18.4687 14.0312C18.5937 13.75 18.7188 13.4375 18.8438 13.125H17.25Z" fill="#2A5F9E"/>
<path d="M7.34375 11.875H0.8125C0.90625 12.3125 1.03125 12.7187 1.15625 13.125H2.75L1.53125 14.0313C1.78125 14.5625 2.0625 15.0312 2.40625 15.5L5.625 13.125H6.875V13.75L3.21875 16.4375L3.65625 16.875L6.875 14.5312V18.8437C7.28125 19 7.6875 19.0938 8.125 19.1875V11.875H7.34375Z" fill="white"/>
<path d="M19.1875 11.875H11.875V19.1875C12.3125 19.0938 12.7187 18.9687 13.125 18.8437V14.5312L16.3437 16.875C16.7812 16.4687 17.1562 16.0312 17.5312 15.5625L14.1875 13.125H16.3125L18.2187 14.5312C18.3125 14.375 18.4062 14.1875 18.4687 14.0313L17.25 13.125H18.8437C18.9687 12.7187 19.0938 12.3125 19.1875 11.875Z" fill="white"/>
<path d="M2.40625 15.5C2.65625 15.8437 2.90625 16.1563 3.1875 16.4688L6.875 13.7812V13.1562H5.625L2.40625 15.5Z" fill="#ED4C5C"/>
<path d="M14.2188 13.125L17.5625 15.5625C17.6875 15.4062 17.7813 15.25 17.9063 15.0938C17.9375 15.0625 17.9375 15.0312 17.9688 15.0312C18.0625 14.875 18.1875 14.6875 18.2813 14.5313L16.3125 13.125H14.2188Z" fill="#ED4C5C"/>
<path d="M13.125 1.15631V5.46881L16.3438 3.09381C15.4375 2.25006 14.3438 1.59381 13.125 1.15631Z" fill="#2A5F9E"/>
<path d="M6.875 1.15631C5.65625 1.59381 4.5625 2.25006 3.65625 3.09381L6.875 5.50006V1.15631Z" fill="#2A5F9E"/>
<path d="M18.8438 6.87506C18.75 6.56256 18.625 6.28131 18.4687 5.96881L17.25 6.87506H18.8438Z" fill="#2A5F9E"/>
<path d="M2.75 6.87506L1.53125 5.96881C1.40625 6.28131 1.28125 6.56256 1.15625 6.87506H2.75Z" fill="#2A5F9E"/>
<path d="M12.6562 8.125H19.1562C19.0625 7.6875 18.9375 7.28125 18.8125 6.875H17.2187L18.4375 5.96875C18.1875 5.4375 17.9063 4.96875 17.5625 4.5L14.375 6.875H13.125V6.25L16.7812 3.5625L16.3438 3.125L13.125 5.46875V1.15625C12.7188 1 12.3125 0.90625 11.875 0.8125V8.125H12.6562Z" fill="white"/>
<path d="M0.8125 8.125H8.125V0.8125C7.6875 0.90625 7.28125 1.03125 6.875 1.15625V5.46875L3.65625 3.125C3.21875 3.53125 2.84375 3.96875 2.46875 4.4375L5.8125 6.875H3.6875L1.78125 5.46875C1.6875 5.625 1.59375 5.8125 1.53125 5.96875L2.75 6.875H1.15625C1.03125 7.28125 0.90625 7.6875 0.8125 8.125Z" fill="white"/>
<path d="M17.5938 4.49994C17.3438 4.15619 17.0938 3.84369 16.8125 3.53119L13.125 6.21869V6.84369H14.375L17.5938 4.49994Z" fill="#ED4C5C"/>
<path d="M5.78125 6.87506L2.46875 4.43756C2.34375 4.59381 2.25 4.75006 2.125 4.90631C2.09375 4.93756 2.09375 4.96881 2.0625 4.96881C1.96875 5.12506 1.84375 5.31256 1.75 5.46881L3.65625 6.87506H5.78125Z" fill="#ED4C5C"/>
<path d="M19.1875 8.125H11.875V0.8125C11.2812 0.6875 10.6562 0.625 10 0.625C9.34375 0.625 8.71875 0.6875 8.125 0.8125V8.125H0.8125C0.6875 8.71875 0.625 9.34375 0.625 10C0.625 10.6562 0.6875 11.2812 0.8125 11.875H8.125V19.1875C8.71875 19.3125 9.34375 19.375 10 19.375C10.6562 19.375 11.2812 19.3125 11.875 19.1875V11.875H19.1875C19.3125 11.2812 19.375 10.6562 19.375 10C19.375 9.34375 19.3125 8.71875 19.1875 8.125Z" fill="#ED4C5C"/>
</svg>
