<svg width="20" height="20" viewBox="0 0 20 20" fill="none" xmlns="http://www.w3.org/2000/svg">
<path d="M17.0234 6.36041L13.6396 2.97666C13.5383 2.87474 13.4178 2.79394 13.285 2.73893C13.1522 2.68392 13.0099 2.6558 12.8662 2.65619H3.75C3.46002 2.65652 3.18201 2.77186 2.97697 2.97691C2.77192 3.18196 2.65658 3.45996 2.65625 3.74994V16.2499C2.65658 16.5399 2.77192 16.8179 2.97697 17.023C3.18201 17.228 3.46002 17.3434 3.75 17.3437H16.25C16.54 17.3434 16.818 17.228 17.023 17.023C17.2281 16.8179 17.3434 16.5399 17.3437 16.2499V7.13385C17.3441 6.99015 17.316 6.84781 17.2611 6.71505C17.2061 6.58229 17.1253 6.46175 17.0234 6.36041V6.36041ZM16.4062 16.2499C16.4062 16.2914 16.3897 16.3311 16.3604 16.3604C16.3311 16.3896 16.2914 16.4061 16.25 16.4062H3.75C3.70858 16.4061 3.66887 16.3896 3.63958 16.3604C3.61029 16.3311 3.59381 16.2914 3.59375 16.2499V3.74994C3.59381 3.70852 3.61029 3.66882 3.63958 3.63953C3.66887 3.61024 3.70858 3.59376 3.75 3.59369H7.03125V7.50072C7.03125 7.62504 7.08064 7.74427 7.16854 7.83218C7.25645 7.92009 7.37568 7.96947 7.5 7.96947H12.5C12.6243 7.96947 12.7435 7.92009 12.8315 7.83218C12.9194 7.74427 12.9687 7.62504 12.9687 7.50072C12.9687 7.3764 12.9194 7.25718 12.8315 7.16927C12.7435 7.08136 12.6243 7.03197 12.5 7.03197H7.96875V3.59369H12.8662C12.9076 3.5938 12.9473 3.61028 12.9766 3.63955L16.3605 7.0233C16.3897 7.05272 16.4061 7.09243 16.4062 7.13385V16.2499ZM10.0005 9.53197C9.47511 9.53197 8.96155 9.68776 8.52474 9.97963C8.08792 10.2715 7.74746 10.6864 7.54641 11.1717C7.34537 11.6571 7.29277 12.1912 7.39526 12.7064C7.49775 13.2217 7.75073 13.695 8.12222 14.0665C8.4937 14.438 8.967 14.6909 9.48226 14.7934C9.99752 14.8959 10.5316 14.8433 11.017 14.6423C11.5023 14.4412 11.9172 14.1008 12.2091 13.664C12.5009 13.2271 12.6567 12.7136 12.6567 12.1882C12.6559 11.484 12.3758 10.8088 11.8779 10.3108C11.3799 9.81287 10.7047 9.53276 10.0005 9.53197V9.53197ZM10.0005 13.907C9.66053 13.907 9.32823 13.8062 9.04558 13.6173C8.76293 13.4285 8.54264 13.16 8.41255 12.846C8.28246 12.5319 8.24843 12.1863 8.31474 11.8529C8.38106 11.5195 8.54476 11.2133 8.78513 10.9729C9.0255 10.7325 9.33175 10.5688 9.66516 10.5025C9.99856 10.4362 10.3441 10.4702 10.6582 10.6003C10.9723 10.7304 11.2407 10.9507 11.4296 11.2333C11.6184 11.516 11.7192 11.8483 11.7192 12.1882C11.7187 12.6439 11.5375 13.0808 11.2152 13.403C10.893 13.7252 10.4561 13.9065 10.0005 13.907V13.907Z" fill="#21BAA8"/>
</svg>
