<svg width="16" height="14" viewBox="0 0 16 14" fill="none" xmlns="http://www.w3.org/2000/svg">
<path fill-rule="evenodd" clip-rule="evenodd" d="M0.0166626 1.49998C0.0166626 1.14099 0.307678 0.849976 0.666663 0.849976H15.3333C15.6923 0.849976 15.9833 1.14099 15.9833 1.49998C15.9833 1.85896 15.6923 2.14998 15.3333 2.14998H0.666663C0.307678 2.14998 0.0166626 1.85896 0.0166626 1.49998ZM0.0166626 6.99998C0.0166626 6.64099 0.307678 6.34998 0.666663 6.34998H15.3333C15.6923 6.34998 15.9833 6.64099 15.9833 6.99998C15.9833 7.35896 15.6923 7.64998 15.3333 7.64998H0.666663C0.307678 7.64998 0.0166626 7.35896 0.0166626 6.99998ZM0.0166626 12.5C0.0166626 12.141 0.307678 11.85 0.666663 11.85H7.08333C7.44231 11.85 7.73333 12.141 7.73333 12.5C7.73333 12.859 7.44231 13.15 7.08333 13.15H0.666663C0.307678 13.15 0.0166626 12.859 0.0166626 12.5Z" fill="#1A1A1A"/>
</svg>
