<svg width="18" height="18" viewBox="0 0 18 18" fill="none" xmlns="http://www.w3.org/2000/svg">
<path d="M8.01317 13.2813L6.47922 14.9031C6.01243 15.3942 5.38293 15.6696 4.72703 15.6696C4.07113 15.6696 3.44163 15.3942 2.97484 14.9031C2.74727 14.6611 2.56673 14.3736 2.44354 14.0571C2.32036 13.7406 2.25695 13.4013 2.25695 13.0586C2.25695 12.716 2.32036 12.3767 2.44354 12.0602C2.56673 11.7437 2.74727 11.4562 2.97484 11.2142L5.89931 8.1235C6.36611 7.63235 6.99561 7.35696 7.65151 7.35696C8.3074 7.35696 8.93691 7.63235 9.4037 8.1235C9.70076 8.43809 9.91569 8.82985 10.0273 9.26008C10.0886 9.20612 10.145 9.14602 10.1956 9.08062L11 8.22985C10.8199 7.83024 10.5774 7.46614 10.2829 7.15309C9.58245 6.41436 8.63687 6 7.65151 6C6.66614 6 5.72056 6.41436 5.0201 7.15309L2.08939 10.2704C1.74419 10.6355 1.4702 11.0699 1.28323 11.5484C1.09626 12.027 1 12.5402 1 13.0586C1 13.577 1.09626 14.0903 1.28323 14.5688C1.4702 15.0474 1.74419 15.4818 2.08939 15.8469C2.78985 16.5856 3.73543 17 4.72079 17C5.70616 17 6.65174 16.5856 7.3522 15.8469L9.62818 13.4408H9.3164C8.8773 13.449 8.4391 13.3954 8.01317 13.2813Z" fill="#1A1A1A"/>
<path d="M15.9247 2.15309C15.2237 1.41436 14.2772 1 13.291 1C12.3048 1 11.3583 1.41436 10.6573 2.15309L8.37928 4.55918H8.68509C9.12778 4.55906 9.56852 4.62164 9.99572 4.74528L11.531 3.1235C11.9982 2.63235 12.6283 2.35696 13.2848 2.35696C13.9412 2.35696 14.5713 2.63235 15.0385 3.1235C15.2663 3.36552 15.447 3.65301 15.5703 3.9695C15.6936 4.286 15.757 4.62529 15.757 4.96795C15.757 5.3106 15.6936 5.64989 15.5703 5.96639C15.447 6.28289 15.2663 6.57037 15.0385 6.81239L12.1114 9.90309C11.6442 10.3942 11.0142 10.6696 10.3577 10.6696C9.70122 10.6696 9.07116 10.3942 8.60396 9.90309C8.30663 9.5885 8.09151 9.19674 7.97985 8.76651C7.91738 8.81173 7.85889 8.8629 7.8051 8.91938L7 9.77015C7.18027 10.1698 7.42296 10.5339 7.71772 10.8469C8.4188 11.5856 9.36522 12 10.3515 12C11.3377 12 12.2841 11.5856 12.9852 10.8469L15.9123 7.75622C16.257 7.39062 16.5306 6.9561 16.7172 6.47762C16.9039 5.99913 17 5.48609 17 4.96795C17 4.4498 16.9039 3.93676 16.7172 3.45828C16.5306 2.97979 16.257 2.54527 15.9123 2.17967L15.9247 2.15309Z" fill="#1A1A1A"/>
</svg>
