<svg width="17" height="16" viewBox="0 0 17 16" fill="none" xmlns="http://www.w3.org/2000/svg">
<path fill-rule="evenodd" clip-rule="evenodd" d="M3.06003 0H3.00003C2.72523 0 2.48883 7.45058e-09 2.28003 0.0492C1.95679 0.126438 1.66125 0.291656 1.42615 0.526547C1.19104 0.761439 1.02556 1.05683 0.94803 1.38C0.90003 1.5888 0.90003 1.824 0.90003 2.1V5.1C0.90003 5.3748 0.90003 5.6112 0.94923 5.82C1.02647 6.14324 1.19169 6.43878 1.42658 6.67388C1.66147 6.90899 1.95686 7.07447 2.28003 7.152C2.48883 7.2 2.72403 7.2 3.00003 7.2H6.00003C6.27483 7.2 6.51123 7.2 6.72003 7.1508C7.04327 7.07356 7.33881 6.90834 7.57391 6.67345C7.80902 6.43856 7.9745 6.14317 8.05203 5.82C8.10003 5.6112 8.10003 5.376 8.10003 5.1V2.1C8.10003 1.8252 8.10003 1.5888 8.05083 1.38C7.97359 1.05676 7.80837 0.76122 7.57348 0.526117C7.33859 0.291013 7.0432 0.125529 6.72003 0.048C6.51123 -4.47035e-08 6.27603 0 6.00003 0H3.06003ZM2.55963 1.2168C2.61123 1.2048 2.69163 1.2 3.06003 1.2H5.94003C6.30963 1.2 6.38883 1.2036 6.44043 1.2168C6.54823 1.24258 6.64677 1.29771 6.72515 1.37608C6.80352 1.45445 6.85865 1.553 6.88443 1.6608C6.89643 1.7112 6.90003 1.7904 6.90003 2.16V5.04C6.90003 5.4096 6.89643 5.4888 6.88323 5.5404C6.85745 5.6482 6.80232 5.74675 6.72395 5.82512C6.64558 5.90349 6.54703 5.95862 6.43923 5.9844C6.39003 5.9952 6.31083 6 5.94003 6H3.06003C2.69043 6 2.61123 5.9964 2.55963 5.9832C2.45183 5.95742 2.35329 5.90229 2.27491 5.82392C2.19654 5.74555 2.14141 5.647 2.11563 5.5392C2.10483 5.49 2.10003 5.4108 2.10003 5.04V2.16C2.10003 1.7904 2.10363 1.7112 2.11683 1.6596C2.14261 1.5518 2.19774 1.45326 2.27611 1.37488C2.35449 1.29651 2.45303 1.24138 2.56083 1.2156L2.55963 1.2168ZM11.46 0H11.4C11.1252 0 10.8888 7.45058e-09 10.68 0.0492C10.3568 0.126438 10.0613 0.291656 9.82615 0.526547C9.59104 0.761439 9.42556 1.05683 9.34803 1.38C9.30003 1.5888 9.30003 1.824 9.30003 2.1V5.1C9.30003 5.3748 9.30003 5.6112 9.34923 5.82C9.42647 6.14324 9.59169 6.43878 9.82658 6.67388C10.0615 6.90899 10.3569 7.07447 10.68 7.152C10.8888 7.2 11.124 7.2 11.4 7.2H14.4C14.6748 7.2 14.9112 7.2 15.12 7.1508C15.4433 7.07356 15.7388 6.90834 15.9739 6.67345C16.209 6.43856 16.3745 6.14317 16.452 5.82C16.5 5.6112 16.5 5.376 16.5 5.1V2.1C16.5 1.8252 16.5 1.5888 16.4508 1.38C16.3736 1.05676 16.2084 0.76122 15.9735 0.526117C15.7386 0.291013 15.4432 0.125529 15.12 0.048C14.9112 -4.47035e-08 14.676 0 14.4 0H11.46ZM10.9596 1.2168C11.0112 1.2048 11.0916 1.2 11.46 1.2H14.34C14.7096 1.2 14.7888 1.2036 14.8404 1.2168C14.9482 1.24258 15.0468 1.29771 15.1251 1.37608C15.2035 1.45445 15.2587 1.553 15.2844 1.6608C15.2964 1.7112 15.3 1.7904 15.3 2.16V5.04C15.3 5.4096 15.2952 5.4888 15.2832 5.5404C15.2575 5.6482 15.2023 5.74675 15.1239 5.82512C15.0456 5.90349 14.947 5.95862 14.8392 5.9844C14.7888 5.9964 14.7096 6 14.34 6H11.46C11.0904 6 11.0112 5.9964 10.9596 5.9832C10.8518 5.95742 10.7533 5.90229 10.6749 5.82392C10.5965 5.74555 10.5414 5.647 10.5156 5.5392C10.5048 5.49 10.5 5.4108 10.5 5.04V2.16C10.5 1.7904 10.5036 1.7112 10.5168 1.6596C10.5426 1.5518 10.5977 1.45326 10.6761 1.37488C10.7545 1.29651 10.853 1.24138 10.9608 1.2156L10.9596 1.2168ZM3.00003 8.4H6.00003C6.27483 8.4 6.51123 8.4 6.72003 8.4492C7.04327 8.52644 7.33881 8.69166 7.57391 8.92655C7.80902 9.16144 7.9745 9.45683 8.05203 9.78C8.10003 9.9888 8.10003 10.224 8.10003 10.5V13.5C8.10003 13.7748 8.10003 14.0112 8.05083 14.22C7.97359 14.5432 7.80837 14.8388 7.57348 15.0739C7.33859 15.309 7.0432 15.4745 6.72003 15.552C6.51123 15.6 6.27603 15.6 6.00003 15.6H3.00003C2.72523 15.6 2.48883 15.6 2.28003 15.5508C1.95679 15.4736 1.66125 15.3083 1.42615 15.0735C1.19104 14.8386 1.02556 14.5432 0.94803 14.22C0.90003 14.0112 0.90003 13.776 0.90003 13.5V10.5C0.90003 10.2252 0.90003 9.9888 0.94923 9.78C1.02647 9.45676 1.19169 9.16122 1.42658 8.92612C1.66147 8.69101 1.95686 8.52553 2.28003 8.448C2.48883 8.4 2.72403 8.4 3.00003 8.4ZM3.06003 9.6C2.69043 9.6 2.61123 9.6036 2.55963 9.6168C2.45183 9.64258 2.35329 9.69771 2.27491 9.77608C2.19654 9.85446 2.14141 9.953 2.11563 10.0608C2.10483 10.11 2.10003 10.1892 2.10003 10.56V13.44C2.10003 13.8096 2.10363 13.8888 2.11683 13.9404C2.14261 14.0482 2.19774 14.1467 2.27611 14.2251C2.35449 14.3035 2.45303 14.3586 2.56083 14.3844C2.61123 14.3964 2.69043 14.4 3.06003 14.4H5.94003C6.30963 14.4 6.38883 14.3952 6.44043 14.3832C6.54823 14.3574 6.64677 14.3023 6.72515 14.2239C6.80352 14.1455 6.85865 14.047 6.88443 13.9392C6.89643 13.8888 6.90003 13.8096 6.90003 13.44V10.56C6.90003 10.1904 6.89643 10.1112 6.88323 10.0596C6.85745 9.95181 6.80232 9.85326 6.72395 9.77488C6.64558 9.69651 6.54703 9.64138 6.43923 9.6156C6.39003 9.6048 6.31083 9.6 5.94003 9.6H3.06003ZM11.46 8.4H11.4C11.1252 8.4 10.8888 8.4 10.68 8.4492C10.3568 8.52644 10.0613 8.69166 9.82615 8.92655C9.59104 9.16144 9.42556 9.45683 9.34803 9.78C9.30003 9.9888 9.30003 10.224 9.30003 10.5V13.5C9.30003 13.7748 9.30003 14.0112 9.34923 14.22C9.42647 14.5432 9.59169 14.8388 9.82658 15.0739C10.0615 15.309 10.3569 15.4745 10.68 15.552C10.8888 15.6012 11.1252 15.6012 11.4 15.6012H14.4C14.6748 15.6012 14.9112 15.6012 15.12 15.552C15.443 15.4746 15.7383 15.3093 15.9732 15.0744C16.2081 14.8395 16.3734 14.5442 16.4508 14.2212C16.5 14.0124 16.5 13.776 16.5 13.5012V10.5C16.5 10.2252 16.5 9.9888 16.4508 9.78C16.3736 9.45676 16.2084 9.16122 15.9735 8.92612C15.7386 8.69101 15.4432 8.52553 15.12 8.448C14.9112 8.4 14.676 8.4 14.4 8.4H11.46ZM10.9596 9.6168C11.0112 9.6048 11.0916 9.6 11.46 9.6H14.34C14.7096 9.6 14.7888 9.6036 14.8404 9.6168C14.9482 9.64258 15.0468 9.69771 15.1251 9.77608C15.2035 9.85446 15.2587 9.953 15.2844 10.0608C15.2964 10.1112 15.3 10.1904 15.3 10.56V13.44C15.3 13.8096 15.2952 13.8888 15.2832 13.9404C15.2575 14.0482 15.2023 14.1467 15.1239 14.2251C15.0456 14.3035 14.947 14.3586 14.8392 14.3844C14.7888 14.3964 14.7096 14.4 14.34 14.4H11.46C11.0904 14.4 11.0112 14.3952 10.9596 14.3832C10.8518 14.3574 10.7533 14.3023 10.6749 14.2239C10.5965 14.1455 10.5414 14.047 10.5156 13.9392C10.5048 13.89 10.5 13.8108 10.5 13.44V10.56C10.5 10.1904 10.5036 10.1112 10.5168 10.0596C10.5426 9.95181 10.5977 9.85326 10.6761 9.77488C10.7545 9.69651 10.853 9.64138 10.9608 9.6156L10.9596 9.6168Z" fill="#1a1a1a"/>
</svg>
