<svg width="33" height="33" viewBox="0 0 33 33" fill="none" xmlns="http://www.w3.org/2000/svg">
<path d="M32.5592 0.25631C32.2834 0.0323614 31.9204 -0.0454314 31.5669 0.0252893L10.3526 4.74C9.81279 4.86023 9.42857 5.33877 9.42857 5.89039V24.5371C8.44093 23.9383 7.22464 23.5706 5.89286 23.5706C2.64471 23.5706 0 25.6851 0 28.2853C0 30.8855 2.64471 33 5.89286 33C9.141 33 11.7857 30.8855 11.7857 28.2853V13.9078L30.6429 9.71638V19.8224C29.6552 19.2236 28.4389 18.8559 27.1071 18.8559C23.8566 18.8559 21.2143 20.9704 21.2143 23.5706C21.2143 26.1707 23.8566 28.2853 27.1071 28.2853C30.3576 28.2853 33 26.1707 33 23.5706V1.17568C33 0.817361 32.8397 0.480259 32.5592 0.25631Z" fill="url(#paint0_linear)"/>
<defs>
<linearGradient id="paint0_linear" x1="33" y1="16.7089" x2="-2.19589e-07" y2="16.7089" gradientUnits="userSpaceOnUse">
<stop stop-color="#C0E8FF"/>
<stop offset="1" stop-color="#D1FFD5"/>
</linearGradient>
</defs>
</svg>
