<svg width="18" height="18" viewBox="0 0 18 18" fill="none" xmlns="http://www.w3.org/2000/svg">
<path d="M14.9712 1.80661C14.9038 1.75401 14.8254 1.71746 14.7417 1.69973C14.6581 1.68201 14.5716 1.68357 14.4887 1.70431L5.48866 3.95431C5.36695 3.98473 5.25891 4.05496 5.18171 4.15383C5.1045 4.25271 5.06257 4.37455 5.06256 4.5V12.2402C4.59342 11.9269 4.03302 11.7793 3.47039 11.8209C2.90776 11.8625 2.37517 12.0909 1.95723 12.4698C1.53928 12.8488 1.25996 13.3566 1.16363 13.9124C1.0673 14.4683 1.15949 15.0404 1.42555 15.5379C1.69162 16.0354 2.11629 16.4297 2.63212 16.6582C3.14794 16.8867 3.72533 16.9363 4.27255 16.7991C4.81977 16.6618 5.30544 16.3457 5.65241 15.9008C5.99937 15.456 6.18773 14.9079 6.18756 14.3438V8.31417L14.0626 6.34542V9.99021C13.5934 9.67686 13.033 9.52926 12.4704 9.57086C11.9078 9.61247 11.3752 9.84089 10.9572 10.2198C10.5393 10.5988 10.26 11.1066 10.1636 11.6624C10.0673 12.2183 10.1595 12.7904 10.4256 13.2879C10.6916 13.7854 11.1163 14.1797 11.6321 14.4082C12.1479 14.6367 12.7253 14.6863 13.2726 14.5491C13.8198 14.4118 14.3054 14.0957 14.6524 13.6508C14.9994 13.206 15.1877 12.6579 15.1876 12.0938V2.25C15.1876 2.16451 15.1681 2.08015 15.1306 2.00332C15.0931 1.92649 15.0386 1.85921 14.9712 1.80661ZM3.65631 15.75C3.37818 15.75 3.1063 15.6675 2.87504 15.513C2.64379 15.3585 2.46354 15.1389 2.35711 14.8819C2.25067 14.6249 2.22282 14.3422 2.27708 14.0694C2.33134 13.7966 2.46528 13.546 2.66194 13.3494C2.85861 13.1527 3.10918 13.0188 3.38197 12.9645C3.65475 12.9103 3.9375 12.9381 4.19446 13.0445C4.45142 13.151 4.67105 13.3312 4.82557 13.5625C4.98009 13.7937 5.06256 14.0656 5.06256 14.3438C5.06215 14.7166 4.91386 15.074 4.65023 15.3377C4.3866 15.6013 4.02915 15.7496 3.65631 15.75ZM6.18756 7.15458V4.93917L14.0626 2.97042V5.18583L6.18756 7.15458ZM12.6563 13.5C12.3782 13.5 12.1063 13.4175 11.875 13.263C11.6438 13.1085 11.4635 12.8889 11.3571 12.6319C11.2507 12.3749 11.2228 12.0922 11.2771 11.8194C11.3313 11.5466 11.4653 11.296 11.6619 11.0994C11.8586 10.9027 12.1092 10.7688 12.382 10.7145C12.6548 10.6603 12.9375 10.6881 13.1945 10.7945C13.4514 10.901 13.671 11.0812 13.8256 11.3125C13.9801 11.5437 14.0626 11.8156 14.0626 12.0938C14.0622 12.4666 13.9139 12.824 13.6502 13.0877C13.3866 13.3513 13.0292 13.4996 12.6563 13.5Z" fill="#1A1A1A"/>
</svg>
