<svg width="12" height="12" viewBox="0 0 12 12" fill="none" xmlns="http://www.w3.org/2000/svg">
<path fill-rule="evenodd" clip-rule="evenodd" d="M0.205025 11.2151C-0.0683418 10.9417 -0.0683417 10.4985 0.205025 10.2252L5.21508 5.21512C5.48844 4.94175 5.93166 4.94175 6.20503 5.21512C6.47839 5.48848 6.47839 5.9317 6.20503 6.20507L1.19497 11.2151C0.921608 11.4885 0.478392 11.4885 0.205025 11.2151Z" fill="#768989"/>
<path fill-rule="evenodd" clip-rule="evenodd" d="M6.20503 6.20507C5.93166 6.47843 5.48844 6.47839 5.21508 6.20503L0.205026 1.19497C-0.0683412 0.921607 -0.0683408 0.478392 0.205026 0.205025C0.478393 -0.0683417 0.921609 -0.0683419 1.19498 0.205025L6.20503 5.21512C6.47839 5.48848 6.47839 5.9317 6.20503 6.20507Z" fill="#768989"/>
<path fill-rule="evenodd" clip-rule="evenodd" d="M5.20503 11.2151C4.93166 10.9417 4.93166 10.4985 5.20503 10.2252L10.2151 5.21512C10.4884 4.94175 10.9317 4.94175 11.205 5.21512C11.4784 5.48848 11.4784 5.9317 11.205 6.20507L6.19497 11.2151C5.92161 11.4885 5.47839 11.4885 5.20503 11.2151Z" fill="#768989"/>
<path fill-rule="evenodd" clip-rule="evenodd" d="M11.205 6.20507C10.9317 6.47843 10.4884 6.47839 10.2151 6.20503L5.20503 1.19497C4.93166 0.921607 4.93166 0.478392 5.20503 0.205025C5.47839 -0.0683417 5.92161 -0.0683419 6.19498 0.205025L11.205 5.21512C11.4784 5.48848 11.4784 5.9317 11.205 6.20507Z" fill="#768989"/>
</svg>
