<svg width="20" height="20" viewBox="0 0 20 20" fill="none" xmlns="http://www.w3.org/2000/svg">
<path fill-rule="evenodd" clip-rule="evenodd" d="M13 4.98989C13.2734 5.26326 13.2734 5.70647 13 5.97984L7.98997 10.9899C7.7166 11.2633 7.27339 11.2633 7.00002 10.9899C6.72665 10.7165 6.72665 10.2733 7.00002 9.99994L12.0101 4.98989C12.2834 4.71652 12.7267 4.71652 13 4.98989Z" fill="#768989"/>
<path fill-rule="evenodd" clip-rule="evenodd" d="M7.00002 9.99986C7.27339 9.72649 7.7166 9.72649 7.98997 9.99986L13 15.0099C13.2734 15.2833 13.2734 15.7265 13 15.9999C12.7267 16.2732 12.2834 16.2732 12.0101 15.9999L7.00002 10.9898C6.72665 10.7164 6.72665 10.2732 7.00002 9.99986Z" fill="#768989"/>
</svg>
