<?xml version="1.0" encoding="UTF-8" standalone="no"?>
<svg
   xmlns:dc="http://purl.org/dc/elements/1.1/"
   xmlns:cc="http://creativecommons.org/ns#"
   xmlns:rdf="http://www.w3.org/1999/02/22-rdf-syntax-ns#"
   xmlns:svg="http://www.w3.org/2000/svg"
   xmlns="http://www.w3.org/2000/svg"
   xmlns:sodipodi="http://sodipodi.sourceforge.net/DTD/sodipodi-0.dtd"
   xmlns:inkscape="http://www.inkscape.org/namespaces/inkscape"
   width="12"
   height="12"
   viewBox="0 0 12 12"
   fill="none"
   id="svg4136"
   version="1.1"
   inkscape:version="0.91 r13725"
   sodipodi:docname="page_first.svg">
  <metadata
     id="metadata4150">
    <rdf:RDF>
      <cc:Work
         rdf:about="">
        <dc:format>image/svg+xml</dc:format>
        <dc:type
           rdf:resource="http://purl.org/dc/dcmitype/StillImage" />
        <dc:title></dc:title>
      </cc:Work>
    </rdf:RDF>
  </metadata>
  <defs
     id="defs4148" />
  <sodipodi:namedview
     pagecolor="#ffffff"
     bordercolor="#666666"
     borderopacity="1"
     objecttolerance="10"
     gridtolerance="10"
     guidetolerance="10"
     inkscape:pageopacity="0"
     inkscape:pageshadow="2"
     inkscape:window-width="1366"
     inkscape:window-height="705"
     id="namedview4146"
     showgrid="false"
     inkscape:zoom="44.666667"
     inkscape:cx="5.9776119"
     inkscape:cy="6"
     inkscape:window-x="-8"
     inkscape:window-y="-8"
     inkscape:window-maximized="1"
     inkscape:current-layer="svg4136" />
  <path
     d="m 11.205025,11.2151 c 0.273367,-0.2734 0.273367,-0.7166 0,-0.9899 L 6.1949699,5.21512 c -0.27336,-0.27337 -0.71658,-0.27337 -0.98995,0 -0.27336,0.27336 -0.27336,0.71658 0,0.98995 L 10.21508,11.2151 c 0.273362,0.2734 0.716578,0.2734 0.989945,0 z"
     id="path4138"
     inkscape:connector-curvature="0"
     style="clip-rule:evenodd;fill:#768989;fill-rule:evenodd" />
  <path
     d="m 5.2050199,6.20507 c 0.27337,0.27336 0.71659,0.27332 0.98995,-4e-5 L 11.205024,1.19497 c 0.273367,-0.273363 0.273367,-0.716578 0,-0.989945 -0.273367,-0.2733667 -0.716583,-0.2733669 -0.989954,0 L 5.2050199,5.21512 c -0.27336,0.27336 -0.27336,0.71658 0,0.98995 z"
     id="path4140"
     inkscape:connector-curvature="0"
     style="clip-rule:evenodd;fill:#768989;fill-rule:evenodd" />
  <path
     d="m 6.2050199,11.2151 c 0.27337,-0.2734 0.27337,-0.7166 0,-0.9899 l -5.01007,-5.01008 c -0.27329996,-0.27337 -0.71659996,-0.27337 -0.98989996,0 -0.2734,0.27336 -0.2734,0.71658 0,0.98995 L 5.2150799,11.2151 c 0.27336,0.2734 0.71658,0.2734 0.98994,0 z"
     id="path4142"
     inkscape:connector-curvature="0"
     style="clip-rule:evenodd;fill:#768989;fill-rule:evenodd" />
  <path
     d="m 0.20504994,6.20507 c 0.2733,0.27336 0.7166,0.27332 0.98989996,-4e-5 l 5.01007,-5.01006 c 0.27337,-0.273363 0.27337,-0.716578 0,-0.989945 -0.27336,-0.2733667 -0.71658,-0.2733669 -0.98995,0 L 0.20504994,5.21512 c -0.2734,0.27336 -0.2734,0.71658 0,0.98995 z"
     id="path4144"
     inkscape:connector-curvature="0"
     style="clip-rule:evenodd;fill:#768989;fill-rule:evenodd" />
</svg>
