<svg width="20" height="20" viewBox="0 0 20 20" fill="none" xmlns="http://www.w3.org/2000/svg">
<path fill-rule="evenodd" clip-rule="evenodd" d="M6.99998 16.0001C6.72661 15.7267 6.72661 15.2835 6.99998 15.0102L12.01 10.0001C12.2834 9.72674 12.7266 9.72674 13 10.0001C13.2733 10.2735 13.2733 10.7167 13 10.9901L7.98993 16.0001C7.71656 16.2735 7.27335 16.2735 6.99998 16.0001Z" fill="#768989"/>
<path fill-rule="evenodd" clip-rule="evenodd" d="M13 10.9899C12.7266 11.2633 12.2834 11.2633 12.01 10.9899L6.99998 5.97984C6.72661 5.70647 6.72661 5.26325 6.99998 4.98989C7.27335 4.71652 7.71656 4.71652 7.98993 4.98989L13 9.99994C13.2733 10.2733 13.2733 10.7165 13 10.9899Z" fill="#768989"/>
</svg>
