<svg width="18" height="18" viewBox="0 0 18 18" fill="none" xmlns="http://www.w3.org/2000/svg">
<path d="M16 2H2C1.73478 2 1.48043 2.10536 1.29289 2.29289C1.10536 2.48043 1 2.73478 1 3V15C1 15.2652 1.10536 15.5196 1.29289 15.7071C1.48043 15.8946 1.73478 16 2 16H16C16.2652 16 16.5196 15.8946 16.7071 15.7071C16.8946 15.5196 17 15.2652 17 15V3C17 2.73478 16.8946 2.48043 16.7071 2.29289C16.5196 2.10536 16.2652 2 16 2ZM2 15V3H16V15H2Z" fill="#21BAA8"/>
<path d="M4.45996 6.99999C4.75663 6.99999 5.04664 6.91202 5.29332 6.7472C5.53999 6.58238 5.73225 6.34811 5.84578 6.07402C5.95931 5.79993 5.98902 5.49833 5.93114 5.20736C5.87326 4.91639 5.7304 4.64911 5.52062 4.43933C5.31084 4.22955 5.04357 4.08669 4.7526 4.02882C4.46163 3.97094 4.16003 4.00064 3.88594 4.11417C3.61185 4.22771 3.37758 4.41996 3.21276 4.66664C3.04793 4.91331 2.95996 5.20332 2.95996 5.49999C2.95996 5.89782 3.118 6.27935 3.3993 6.56065C3.68061 6.84196 4.06214 6.99999 4.45996 6.99999ZM4.45996 4.69999C4.6184 4.699 4.77356 4.74508 4.90577 4.83238C5.03799 4.91968 5.1413 5.04428 5.20262 5.19037C5.26394 5.33646 5.2805 5.49747 5.25019 5.65298C5.21989 5.80849 5.1441 5.9515 5.03242 6.06389C4.92074 6.17627 4.7782 6.25296 4.62288 6.28424C4.46756 6.31551 4.30645 6.29996 4.15998 6.23956C4.01351 6.17916 3.88827 6.07663 3.80014 5.94497C3.71201 5.8133 3.66496 5.65843 3.66496 5.49999C3.66627 5.28955 3.75045 5.0881 3.89926 4.93929C4.04807 4.79048 4.24952 4.7063 4.45996 4.70499V4.69999Z" fill="#21BAA8"/>
<path d="M11.39 7.68499L8.68996 10.385L6.68996 8.38499C6.59628 8.29187 6.46955 8.2396 6.33746 8.2396C6.20537 8.2396 6.07864 8.29187 5.98496 8.38499L2.95996 11.45V12.865L6.35496 9.46999L7.99996 11.09L6.12496 12.965H7.49996L11.725 8.73999L15 12V10.59L12.095 7.68499C12.0013 7.59187 11.8746 7.5396 11.7425 7.5396C11.6104 7.5396 11.4836 7.59187 11.39 7.68499Z" fill="#21BAA8"/>
</svg>
