<svg width="16" height="14" viewBox="0 0 16 14" fill="none" xmlns="http://www.w3.org/2000/svg">
<path fill-rule="evenodd" clip-rule="evenodd" d="M5.75 1.375H6.875V2.5H5.75V1.375ZM3.5 1.375H4.625V2.5H3.5V1.375ZM1.25 1.375H2.375V2.5H1.25V1.375ZM14.75 12.625H1.25V3.625H14.75V12.625ZM14.75 2.5H8V1.375H14.75V2.5ZM15.875 1.375C15.875 0.75625 15.3687 0.25 14.75 0.25H1.25C0.63125 0.25 0.125 0.75625 0.125 1.375V12.625C0.125 13.2437 0.63125 13.75 1.25 13.75H14.75C15.3687 13.75 15.875 13.2437 15.875 12.625V1.375Z" fill="#1a1a1a"/>
</svg>
