<svg width="18" height="18" viewBox="0 0 18 18" fill="none" xmlns="http://www.w3.org/2000/svg">
<path d="M9 1C4.58867 1 1 4.58867 1 9C1 13.4113 4.58867 17 9 17C13.4113 17 17 13.4113 17 9C17 4.58867 13.4113 1 9 1ZM9 2.33333C12.69 2.33333 15.6667 5.31 15.6667 9C15.6667 12.69 12.69 15.6667 9 15.6667C5.31 15.6667 2.33333 12.69 2.33333 9C2.33333 5.31 5.31 2.33333 9 2.33333ZM12.6873 4.37533L11.4167 5.62467L12.3753 6.58333L13.6253 5.31267L12.6873 4.37533ZM9 5.66667C7.16667 5.66667 5.66667 7.16667 5.66667 9C5.66667 10.8333 7.16667 12.3333 9 12.3333C10.8333 12.3333 12.3333 10.8333 12.3333 9C12.3333 7.16667 10.8333 5.66667 9 5.66667ZM9 7C10.112 7 11 7.888 11 9C11 10.112 10.112 11 9 11C7.888 11 7 10.112 7 9C7 7.888 7.888 7 9 7ZM9 8.33333C8.63333 8.33333 8.33333 8.63333 8.33333 9C8.33333 9.36667 8.63333 9.66667 9 9.66667C9.36667 9.66667 9.66667 9.36667 9.66667 9C9.66667 8.63333 9.36667 8.33333 9 8.33333ZM5.62467 11.4167L4.37533 12.6873L5.31267 13.6253L6.58333 12.3753L5.62467 11.4167Z" fill="#768989"/>
</svg>
