<svg width="18" height="18" viewBox="0 0 18 18" fill="none" xmlns="http://www.w3.org/2000/svg">
<path d="M11.28 10.899C11.28 11.4564 11.1297 11.9257 10.829 12.307C10.5283 12.6884 10.0627 12.934 9.43199 13.044V14.595H8.22199V13.088C7.93599 13.0587 7.63899 13.0037 7.33099 12.923C7.03032 12.835 6.70399 12.7104 6.35199 12.549L6.75899 11.416C7.16966 11.592 7.51799 11.7167 7.80399 11.79C8.09732 11.856 8.38332 11.889 8.66199 11.889C9.51266 11.889 9.93799 11.5737 9.93799 10.943C9.93799 10.6864 9.87199 10.4847 9.73999 10.338C9.61532 10.1914 9.38066 10.063 9.03599 9.95305L8.13399 9.65605C7.05599 9.30405 6.51699 8.59638 6.51699 7.53305C6.51699 7.01238 6.65632 6.56505 6.93499 6.19105C7.21366 5.81705 7.64266 5.57505 8.22199 5.46505V3.92505H9.43199V5.44305C9.68866 5.47238 9.94532 5.52372 10.202 5.59705C10.4587 5.67038 10.7263 5.76938 11.005 5.89405L10.598 7.02705C10.246 6.88772 9.94532 6.78872 9.69599 6.73005C9.45399 6.66405 9.20466 6.63105 8.94799 6.63105C8.61066 6.63105 8.34299 6.69338 8.14499 6.81805C7.95432 6.93538 7.85899 7.15172 7.85899 7.46705C7.85899 7.70172 7.92499 7.89605 8.05699 8.05005C8.19632 8.19672 8.42366 8.32138 8.73899 8.42405L9.64099 8.72105C10.1837 8.90438 10.5907 9.17205 10.862 9.52405C11.1407 9.86872 11.28 10.327 11.28 10.899Z" fill="#1a1a1a"/>
<path fill-rule="evenodd" clip-rule="evenodd" d="M9 15.7C12.7003 15.7 15.7 12.7003 15.7 9C15.7 5.29969 12.7003 2.3 9 2.3C5.29969 2.3 2.3 5.29969 2.3 9C2.3 12.7003 5.29969 15.7 9 15.7ZM9 17C13.4183 17 17 13.4183 17 9C17 4.58172 13.4183 1 9 1C4.58172 1 1 4.58172 1 9C1 13.4183 4.58172 17 9 17Z" fill="#1a1a1a"/>
</svg>
