<svg width="15" height="15" viewBox="0 0 15 15" fill="F3F8FA" xmlns="http://www.w3.org/2000/svg">
<path fill-rule="evenodd" clip-rule="evenodd" d="M10.7443 9.67406L14.7793 13.7091C14.9211 13.851 15.0008 14.0434 15.0007 14.2441C15.0006 14.4447 14.9209 14.6371 14.7789 14.7789C14.637 14.9208 14.4446 15.0004 14.2439 15.0003C14.0433 15.0003 13.8509 14.9205 13.7091 14.7786L9.67406 10.7436C8.46784 11.6778 6.95102 12.1175 5.43215 11.9731C3.91329 11.8287 2.50648 11.1111 1.49792 9.96627C0.489357 8.82145 -0.0451988 7.33542 0.00299724 5.81047C0.0511933 4.28552 0.678521 2.8362 1.75736 1.75736C2.8362 0.678521 4.28552 0.0511933 5.81047 0.00299724C7.33542 -0.0451988 8.82145 0.489357 9.96627 1.49792C11.1111 2.50648 11.8287 3.91329 11.9731 5.43215C12.1175 6.95102 11.6786 8.46784 10.7443 9.67406ZM6.00056 10.4998C7.19403 10.4998 8.33862 10.0257 9.18254 9.18179C10.0265 8.33787 10.5006 7.19328 10.5006 5.99981C10.5006 4.80633 10.0265 3.66174 9.18254 2.81783C8.33862 1.97391 7.19403 1.49981 6.00056 1.49981C4.80708 1.49981 3.66249 1.97391 2.81858 2.81783C1.97466 3.66174 1.50056 4.80633 1.50056 5.99981C1.50056 7.19328 1.97466 8.33787 2.81858 9.18179C3.66249 10.0257 4.80708 10.4998 6.00056 10.4998Z" fill="#B1BDBD"/>
</svg>
