<svg width="25" height="24" viewBox="0 0 25 24" fill="none" xmlns="http://www.w3.org/2000/svg">
<path fill-rule="evenodd" clip-rule="evenodd" d="M15.2443 13.6741L19.2793 17.7091C19.4211 17.851 19.5008 18.0434 19.5007 18.2441C19.5006 18.4447 19.4209 18.6371 19.2789 18.7789C19.137 18.9208 18.9446 19.0004 18.7439 19.0003C18.5433 19.0003 18.3509 18.9205 18.2091 18.7786L14.1741 14.7436C12.9678 15.6778 11.451 16.1175 9.93215 15.9731C8.41329 15.8287 7.00648 15.1111 5.99792 13.9663C4.98936 12.8215 4.4548 11.3354 4.503 9.81047C4.55119 8.28552 5.17852 6.8362 6.25736 5.75736C7.3362 4.67852 8.78552 4.05119 10.3105 4.003C11.8354 3.9548 13.3215 4.48936 14.4663 5.49792C15.6111 6.50648 16.3287 7.91329 16.4731 9.43215C16.6175 10.951 16.1786 12.4678 15.2443 13.6741ZM10.5006 14.4998C11.694 14.4998 12.8386 14.0257 13.6825 13.1818C14.5265 12.3379 15.0006 11.1933 15.0006 9.99981C15.0006 8.80633 14.5265 7.66174 13.6825 6.81783C12.8386 5.97391 11.694 5.49981 10.5006 5.49981C9.30708 5.49981 8.16249 5.97391 7.31858 6.81783C6.47466 7.66174 6.00056 8.80633 6.00056 9.99981C6.00056 11.1933 6.47466 12.3379 7.31858 13.1818C8.16249 14.0257 9.30708 14.4998 10.5006 14.4998Z" fill="#B1BDBD"/>
</svg>
