<svg width="16" height="15" viewBox="0 0 16 15" fill="none" xmlns="http://www.w3.org/2000/svg">
<path fill-rule="evenodd" clip-rule="evenodd" d="M11.2443 9.67406L15.2793 13.7091C15.4211 13.851 15.5008 14.0434 15.5007 14.2441C15.5006 14.4447 15.4209 14.6371 15.2789 14.7789C15.137 14.9208 14.9446 15.0004 14.7439 15.0003C14.5433 15.0003 14.3509 14.9205 14.2091 14.7786L10.1741 10.7436C8.96784 11.6778 7.45102 12.1175 5.93215 11.9731C4.41329 11.8287 3.00648 11.1111 1.99792 9.96627C0.989357 8.82145 0.454801 7.33542 0.502997 5.81047C0.551193 4.28552 1.17852 2.8362 2.25736 1.75736C3.3362 0.678521 4.78552 0.0511933 6.31047 0.00299724C7.83542 -0.0451988 9.32145 0.489357 10.4663 1.49792C11.6111 2.50648 12.3287 3.91329 12.4731 5.43215C12.6175 6.95102 12.1786 8.46784 11.2443 9.67406ZM6.50056 10.4998C7.69403 10.4998 8.83862 10.0257 9.68254 9.18179C10.5265 8.33787 11.0006 7.19328 11.0006 5.99981C11.0006 4.80633 10.5265 3.66174 9.68254 2.81783C8.83862 1.97391 7.69403 1.49981 6.50056 1.49981C5.30708 1.49981 4.16249 1.97391 3.31858 2.81783C2.47466 3.66174 2.00056 4.80633 2.00056 5.99981C2.00056 7.19328 2.47466 8.33787 3.31858 9.18179C4.16249 10.0257 5.30708 10.4998 6.50056 10.4998Z" fill="#B1BDBD"/>
</svg>
