<svg width="18" height="18" viewBox="0 0 18 18" fill="none" xmlns="http://www.w3.org/2000/svg">
<path d="M15.586 9.48417C15.6099 9.16089 15.6099 8.83948 15.586 8.5158L16.7993 7.39446C17.0141 7.19593 17.0623 6.87577 16.9156 6.62318L15.0282 3.37559C14.8819 3.12387 14.5807 3.00584 14.3015 3.09109L12.716 3.57471C12.4458 3.39159 12.1626 3.22875 11.8692 3.08781L11.4987 1.48481C11.4332 1.20106 11.1796 1 10.8873 1H7.11268C6.82039 1 6.5668 1.20106 6.50123 1.48481L6.13079 3.08781C5.83739 3.22875 5.55416 3.39159 5.28395 3.57471L3.69855 3.09109C3.41924 3.00584 3.11806 3.12387 2.97178 3.37559L1.08444 6.62318C0.937651 6.87577 0.985901 7.19593 1.20071 7.39446L2.41404 8.5158C2.39013 8.83908 2.3901 9.16048 2.41404 9.48417L1.20071 10.6055C0.985901 10.804 0.937651 11.1242 1.08444 11.3768L2.97174 14.6244C3.11803 14.8761 3.41924 14.9941 3.69852 14.9089L5.28392 14.4253C5.55413 14.6084 5.83739 14.7713 6.13076 14.9122L6.50123 16.5152C6.5668 16.7989 6.82039 17 7.11268 17H10.8873C11.1796 17 11.4332 16.7989 11.4987 16.5152L11.8692 14.9122C12.1626 14.7713 12.4458 14.6084 12.716 14.4253L14.3015 14.9089C14.5807 14.9941 14.8819 14.8761 15.0282 14.6244L16.9155 11.3768C17.0623 11.1242 17.0141 10.804 16.7993 10.6055L15.586 9.48417ZM14.3085 8.3447C14.3625 8.78102 14.3625 9.2188 14.3085 9.65526C14.2839 9.85445 14.3568 10.0533 14.5045 10.1898L15.5785 11.1824L14.192 13.5682L12.7868 13.1396C12.5944 13.0808 12.3856 13.1176 12.2251 13.2383C11.8721 13.5037 11.488 13.7245 11.0835 13.8946C10.8979 13.9726 10.7612 14.1346 10.716 14.3302L10.3879 15.75H7.61213L7.28401 14.3302C7.23883 14.1346 7.10211 13.9726 6.91654 13.8946C6.512 13.7245 6.12787 13.5037 5.77493 13.2383C5.6144 13.1176 5.40552 13.0808 5.21321 13.1396L3.80798 13.5682L2.4215 11.1824L3.49551 10.1898C3.64321 10.0533 3.71612 9.85445 3.69146 9.65526C3.63753 9.21895 3.63753 8.78117 3.69146 8.3447C3.71612 8.14552 3.64321 7.94664 3.49551 7.81014L2.4215 6.81755L3.80798 4.43174L5.21321 4.8604C5.40549 4.91909 5.61437 4.88237 5.77493 4.76165C6.12787 4.49631 6.51196 4.27549 6.91654 4.1054C7.10211 4.02737 7.2388 3.86534 7.28401 3.66981L7.6121 2.25H10.3879L10.716 3.66981C10.7612 3.86537 10.8979 4.02737 11.0835 4.1054C11.488 4.27549 11.8721 4.49631 12.2251 4.76165C12.3856 4.88237 12.5945 4.91912 12.7868 4.8604L14.192 4.43174L15.5785 6.81755L14.5045 7.81014C14.3568 7.94664 14.2839 8.14552 14.3085 8.3447Z" fill="#1a1a1a"/>
<path d="M8.99999 6.1875C7.44918 6.1875 6.1875 7.44919 6.1875 9C6.1875 10.5508 7.44918 11.8125 8.99999 11.8125C10.5508 11.8125 11.8125 10.5508 11.8125 9C11.8125 7.44919 10.5508 6.1875 8.99999 6.1875ZM8.99999 10.4062C8.22459 10.4062 7.59375 9.7754 7.59375 9C7.59375 8.22459 8.22459 7.59375 8.99999 7.59375C9.7754 7.59375 10.4062 8.22459 10.4062 9C10.4062 9.7754 9.77543 10.4062 8.99999 10.4062Z" fill="#1a1a1a"/>
</svg>
