<svg width="13" height="14" viewBox="0 0 13 14" fill="none" xmlns="http://www.w3.org/2000/svg">
<path d="M6.5 0C3.99425 0 1.95 2.00136 1.95 4.45455C1.95 5.98818 2.7495 7.35 3.9611 8.15373C1.64255 9.12736 0 11.3801 0 14H1.3C1.3 11.1809 3.6205 8.90909 6.5 8.90909C9.3795 8.90909 11.7 11.1809 11.7 14H13C13 11.3801 11.3574 9.128 9.0389 8.15309C9.65728 7.7444 10.1639 7.19358 10.5145 6.54881C10.8651 5.90404 11.049 5.18498 11.05 4.45455C11.05 2.00136 9.00575 0 6.5 0ZM6.5 1.27273C8.30245 1.27273 9.75 2.68991 9.75 4.45455C9.75 6.21918 8.30245 7.63636 6.5 7.63636C4.69755 7.63636 3.25 6.21918 3.25 4.45455C3.25 2.68991 4.69755 1.27273 6.5 1.27273Z" fill="#1a1a1a"/>
</svg>
