<svg width="8" height="5" viewBox="0 0 8 5" fill="none" xmlns="http://www.w3.org/2000/svg">
<path fill-rule="evenodd" clip-rule="evenodd" d="M0.175736 0.175736C0.41005 -0.0585787 0.789949 -0.0585786 1.02426 0.175736L4.17573 3.32721C4.41005 3.56152 4.41005 3.94142 4.17573 4.17573C3.94142 4.41005 3.56152 4.41005 3.32721 4.17573L0.175736 1.02426C-0.0585786 0.789949 -0.0585786 0.41005 0.175736 0.175736Z" fill="#1A1A1A"/>
<path fill-rule="evenodd" clip-rule="evenodd" d="M3.32721 4.17573C3.09289 3.94142 3.09289 3.56152 3.32721 3.32721L6.47868 0.175736C6.71299 -0.0585786 7.09289 -0.0585785 7.32721 0.175736C7.56152 0.410051 7.56152 0.789949 7.32721 1.02426L4.17573 4.17573C3.94142 4.41005 3.56152 4.41005 3.32721 4.17573Z" fill="#1A1A1A"/>
</svg>
