<svg width="20" height="20" viewBox="0 0 20 20" fill="none" xmlns="http://www.w3.org/2000/svg">
<path d="M9.99944 0.032959C4.4936 0.032959 0.0300293 4.49641 0.0300293 10.0022C0.0300293 15.5083 4.4936 19.9714 9.99944 19.9714C15.5059 19.9714 19.969 15.5083 19.969 10.0022C19.969 4.49677 15.5059 0.0334352 9.99932 0.0334352L9.99944 0.032959V0.032959ZM14.5713 14.4115C14.3928 14.7044 14.0094 14.7972 13.7166 14.6175C11.3759 13.1877 8.4292 12.8639 4.95896 13.6568C4.62455 13.733 4.29122 13.5234 4.21503 13.1889C4.13848 12.8544 4.34717 12.5211 4.68241 12.4449C8.48003 11.5769 11.7375 11.9508 14.3654 13.5568C14.6582 13.7365 14.7511 14.1187 14.5713 14.4115V14.4115ZM15.7916 11.6966C15.5666 12.0627 15.088 12.1782 14.7225 11.9532C12.0428 10.3057 7.95789 9.82867 4.78825 10.7908C4.37717 10.915 3.94301 10.6833 3.81824 10.273C3.69444 9.86189 3.92622 9.42855 4.33658 9.30355C7.95718 8.20498 12.4582 8.73712 15.5356 10.6282C15.9011 10.8532 16.0166 11.3318 15.7916 11.6968V11.6966ZM15.8963 8.86998C12.6832 6.96153 7.38206 6.78605 4.31432 7.71712C3.8217 7.86653 3.30074 7.58843 3.15146 7.09582C3.00217 6.60296 3.28003 6.08236 3.77301 5.9326C7.29456 4.86355 13.1487 5.0701 16.848 7.26617C17.2921 7.52915 17.4373 8.10141 17.1742 8.54391C16.9123 8.98701 16.3385 9.13308 15.8968 8.86998H15.8963Z" fill="#1BC47D"/>
</svg>
