<svg width="20" height="20" viewBox="0 0 20 20" fill="none" xmlns="http://www.w3.org/2000/svg">
<path fill-rule="evenodd" clip-rule="evenodd" d="M10.3031 1.81818C10.8051 1.81818 11.2121 2.22519 11.2121 2.72727C11.2121 3.59123 11.5554 4.41981 12.1663 5.03072C12.7772 5.64164 13.6058 5.98484 14.4697 5.98484C14.9718 5.98484 15.3788 6.39186 15.3788 6.89393C15.3788 7.39601 14.9718 7.80302 14.4697 7.80302C13.274 7.80302 12.1218 7.38113 11.2121 6.61978V12.7273C11.2121 13.5663 10.9633 14.3866 10.4972 15.0842C10.031 15.7819 9.36843 16.3257 8.59323 16.6468C7.81803 16.9679 6.96502 17.0519 6.14207 16.8882C5.31911 16.7245 4.56319 16.3204 3.96987 15.7271C3.37656 15.1338 2.97251 14.3779 2.80881 13.5549C2.64512 12.732 2.72913 11.879 3.05023 11.1038C3.37133 10.3286 3.91509 9.66598 4.61276 9.19982C5.31042 8.73366 6.13065 8.48484 6.96972 8.48484C7.4718 8.48484 7.87881 8.89186 7.87881 9.39393C7.87881 9.89601 7.4718 10.303 6.96972 10.303C6.49025 10.303 6.02155 10.4452 5.62288 10.7116C5.22422 10.978 4.9135 11.3566 4.73001 11.7995C4.54653 12.2425 4.49852 12.73 4.59206 13.2002C4.6856 13.6705 4.91649 14.1024 5.25552 14.4415C5.59456 14.7805 6.02652 15.0114 6.49677 15.1049C6.96703 15.1985 7.45447 15.1505 7.89744 14.967C8.34041 14.7835 8.71903 14.4728 8.98541 14.0741C9.25178 13.6754 9.39396 13.2067 9.39396 12.7273V2.72727C9.39396 2.22519 9.80098 1.81818 10.3031 1.81818Z" fill="#00F2EA"/>
<path fill-rule="evenodd" clip-rule="evenodd" d="M11.2122 3.63635C11.7143 3.63635 12.1213 4.04337 12.1213 4.54544C12.1213 5.40941 12.4645 6.23798 13.0754 6.8489C13.6864 7.45981 14.5149 7.80302 15.3789 7.80302C15.881 7.80302 16.288 8.21003 16.288 8.71211C16.288 9.21419 15.881 9.6212 15.3789 9.6212C14.1832 9.6212 13.031 9.19931 12.1213 8.43796V14.5454C12.1213 15.3845 11.8725 16.2047 11.4063 16.9024C10.9402 17.6001 10.2776 18.1438 9.50241 18.4649C8.7272 18.786 7.87419 18.87 7.05124 18.7064C6.22829 18.5427 5.47237 18.1386 4.87905 17.5453C4.28574 16.952 3.88169 16.196 3.71799 15.3731C3.5543 14.5501 3.63831 13.6971 3.95941 12.9219C4.28051 12.1467 4.82427 11.4842 5.52194 11.018C6.2196 10.5518 7.03983 10.303 7.8789 10.303C8.38098 10.303 8.78799 10.71 8.78799 11.2121C8.78799 11.7142 8.38098 12.1212 7.8789 12.1212C7.39943 12.1212 6.93073 12.2634 6.53206 12.5298C6.1334 12.7961 5.82268 13.1748 5.63919 13.6177C5.45571 14.0607 5.4077 14.5481 5.50124 15.0184C5.59478 15.4886 5.82567 15.9206 6.1647 16.2596C6.50374 16.5987 6.9357 16.8296 7.40595 16.9231C7.87621 17.0166 8.36365 16.9686 8.80662 16.7852C9.24959 16.6017 9.6282 16.2909 9.89458 15.8923C10.161 15.4936 10.3031 15.0249 10.3031 14.5454V4.54544C10.3031 4.04337 10.7102 3.63635 11.2122 3.63635Z" fill="#FF0050"/>
<path fill-rule="evenodd" clip-rule="evenodd" d="M10.8333 2.42419C11.3354 2.42419 11.7424 2.83121 11.7424 3.33329C11.7424 4.19725 12.0856 5.02583 12.6965 5.63674C13.3075 6.24765 14.136 6.59086 15 6.59086C15.5021 6.59086 15.9091 6.99787 15.9091 7.49995C15.9091 8.00203 15.5021 8.40904 15 8.40904C13.8043 8.40904 12.6521 7.98715 11.7424 7.2258V13.3333C11.7424 14.1724 11.4936 14.9926 11.0274 15.6902C10.5613 16.3879 9.8987 16.9317 9.1235 17.2528C8.3483 17.5739 7.49529 17.6579 6.67234 17.4942C5.84939 17.3305 5.09346 16.9264 4.50015 16.3331C3.90683 15.7398 3.50278 14.9839 3.33909 14.1609C3.17539 13.338 3.25941 12.485 3.58051 11.7098C3.9016 10.9346 4.44537 10.272 5.14303 9.80584C5.84069 9.33967 6.66092 9.09086 7.49999 9.09086C8.00207 9.09086 8.40909 9.49788 8.40909 9.99995C8.40909 10.502 8.00207 10.909 7.49999 10.909C7.02052 10.909 6.55182 11.0512 6.15316 11.3176C5.75449 11.584 5.44377 11.9626 5.26029 12.4056C5.0768 12.8485 5.02879 13.336 5.12233 13.8062C5.21587 14.2765 5.44676 14.7084 5.7858 15.0475C6.12483 15.3865 6.55679 15.6174 7.02705 15.7109C7.49731 15.8045 7.98474 15.7565 8.42771 15.573C8.87068 15.3895 9.2493 15.0788 9.51568 14.6801C9.78206 14.2815 9.92424 13.8128 9.92424 13.3333V3.33329C9.92424 2.83121 10.3313 2.42419 10.8333 2.42419Z" fill="black"/>
</svg>
