<svg width="22" height="22" viewBox="0 0 22 22" fill="none" xmlns="http://www.w3.org/2000/svg">
<path fill-rule="evenodd" clip-rule="evenodd" d="M11.3333 2C11.8856 2 12.3333 2.44772 12.3333 3C12.3333 3.95036 12.7109 4.86179 13.3829 5.5338C14.0549 6.2058 14.9663 6.58333 15.9167 6.58333C16.469 6.58333 16.9167 7.03105 16.9167 7.58333C16.9167 8.13562 16.469 8.58333 15.9167 8.58333C14.6014 8.58333 13.334 8.11925 12.3333 7.28176V14C12.3333 14.923 12.0596 15.8252 11.5469 16.5927C11.0341 17.3601 10.3052 17.9582 9.45253 18.3114C8.5998 18.6646 7.66149 18.7571 6.75625 18.577C5.851 18.3969 5.01948 17.9525 4.36684 17.2998C3.71419 16.6472 3.26974 15.8157 3.08967 14.9104C2.90961 14.0052 3.00202 13.0669 3.35523 12.2141C3.70844 11.3614 4.30658 10.6326 5.07401 10.1198C5.84144 9.60703 6.74369 9.33333 7.66667 9.33333C8.21895 9.33333 8.66667 9.78105 8.66667 10.3333C8.66667 10.8856 8.21895 11.3333 7.66667 11.3333C7.13925 11.3333 6.62368 11.4897 6.18515 11.7827C5.74662 12.0758 5.40482 12.4922 5.20299 12.9795C5.00116 13.4668 4.94835 14.003 5.05124 14.5202C5.15414 15.0375 5.40811 15.5127 5.78105 15.8856C6.15399 16.2586 6.62915 16.5125 7.14643 16.6154C7.66371 16.7183 8.19989 16.6655 8.68716 16.4637C9.17443 16.2618 9.5909 15.9201 9.88392 15.4815C10.1769 15.043 10.3333 14.5274 10.3333 14V3C10.3333 2.44772 10.7811 2 11.3333 2Z" fill="#00F2EA"/>
<path fill-rule="evenodd" clip-rule="evenodd" d="M12.3333 4C12.8856 4 13.3333 4.44772 13.3333 5C13.3333 5.95036 13.7109 6.86179 14.3829 7.5338C15.0549 8.2058 15.9663 8.58333 16.9167 8.58333C17.469 8.58333 17.9167 9.03105 17.9167 9.58333C17.9167 10.1356 17.469 10.5833 16.9167 10.5833C15.6014 10.5833 14.334 10.1193 13.3333 9.28176V16C13.3333 16.923 13.0596 17.8252 12.5469 18.5927C12.0341 19.3601 11.3052 19.9582 10.4525 20.3114C9.5998 20.6646 8.66149 20.7571 7.75625 20.577C6.851 20.3969 6.01948 19.9525 5.36684 19.2998C4.71419 18.6472 4.26974 17.8157 4.08967 16.9104C3.90961 16.0052 4.00202 15.0669 4.35523 14.2141C4.70844 13.3614 5.30658 12.6326 6.07401 12.1198C6.84144 11.607 7.74369 11.3333 8.66667 11.3333C9.21895 11.3333 9.66667 11.781 9.66667 12.3333C9.66667 12.8856 9.21895 13.3333 8.66667 13.3333C8.13925 13.3333 7.62368 13.4897 7.18515 13.7827C6.74662 14.0758 6.40482 14.4922 6.20299 14.9795C6.00116 15.4668 5.94835 16.003 6.05124 16.5202C6.15414 17.0375 6.40811 17.5127 6.78105 17.8856C7.15399 18.2586 7.62915 18.5125 8.14643 18.6154C8.66371 18.7183 9.19989 18.6655 9.68716 18.4637C10.1744 18.2618 10.5909 17.9201 10.8839 17.4815C11.1769 17.043 11.3333 16.5274 11.3333 16V5C11.3333 4.44772 11.7811 4 12.3333 4Z" fill="#FF0050"/>
<path fill-rule="evenodd" clip-rule="evenodd" d="M11.9166 2.66663C12.4689 2.66663 12.9166 3.11434 12.9166 3.66663C12.9166 4.61699 13.2941 5.52842 13.9661 6.20043C14.6381 6.87243 15.5496 7.24996 16.4999 7.24996C17.0522 7.24996 17.4999 7.69767 17.4999 8.24996C17.4999 8.80224 17.0522 9.24996 16.4999 9.24996C15.1847 9.24996 13.9172 8.78588 12.9166 7.94839V14.6666C12.9166 15.5896 12.6429 16.4919 12.1301 17.2593C11.6173 18.0267 10.8885 18.6249 10.0358 18.9781C9.18306 19.3313 8.24474 19.4237 7.3395 19.2436C6.43425 19.0636 5.60273 18.6191 4.95009 17.9665C4.29744 17.3138 3.85299 16.4823 3.67292 15.577C3.49286 14.6718 3.58527 13.7335 3.93848 12.8808C4.29169 12.028 4.88983 11.2992 5.65726 10.7864C6.42469 10.2737 7.32694 9.99996 8.24992 9.99996C8.80221 9.99996 9.24992 10.4477 9.24992 11C9.24992 11.5522 8.80221 12 8.24992 12C7.7225 12 7.20693 12.1564 6.7684 12.4494C6.32987 12.7424 5.98808 13.1589 5.78624 13.6461C5.58441 14.1334 5.5316 14.6696 5.63449 15.1869C5.73739 15.7041 5.99136 16.1793 6.3643 16.5522C6.73724 16.9252 7.2124 17.1792 7.72968 17.2821C8.24696 17.3849 8.78314 17.3321 9.27041 17.1303C9.75768 16.9285 10.1742 16.5867 10.4672 16.1481C10.7602 15.7096 10.9166 15.194 10.9166 14.6666V3.66663C10.9166 3.11434 11.3643 2.66663 11.9166 2.66663Z" fill="black"/>
</svg>
