<svg width="15" height="16" viewBox="0 0 15 16" fill="none" xmlns="http://www.w3.org/2000/svg">
<path d="M13.9712 0.806607C13.9038 0.754007 13.8253 0.717456 13.7417 0.699729C13.6581 0.682002 13.5715 0.683566 13.4886 0.704302L4.4886 2.9543C4.36689 2.98472 4.25885 3.05495 4.18165 3.15383C4.10444 3.2527 4.06251 3.37455 4.0625 3.5V11.2402C3.59336 10.9269 3.03296 10.7793 2.47033 10.8209C1.9077 10.8625 1.37511 11.0909 0.957167 11.4698C0.539223 11.8488 0.259899 12.3565 0.163569 12.9124C0.0672389 13.4683 0.159428 14.0404 0.425491 14.5379C0.691554 15.0354 1.11623 15.4297 1.63206 15.6582C2.14788 15.8867 2.72527 15.9363 3.27249 15.7991C3.81971 15.6618 4.30538 15.3457 4.65235 14.9008C4.99931 14.456 5.18767 13.9079 5.1875 13.3437V7.31417L13.0625 5.34542V8.99021C12.5934 8.67685 12.033 8.52925 11.4703 8.57086C10.9077 8.61246 10.3751 8.84089 9.95717 9.21984C9.53923 9.5988 9.2599 10.1065 9.16357 10.6624C9.06724 11.2183 9.15943 11.7904 9.42549 12.2879C9.69156 12.7854 10.1162 13.1797 10.6321 13.4082C11.1479 13.6367 11.7253 13.6863 12.2725 13.5491C12.8197 13.4118 13.3054 13.0957 13.6524 12.6508C13.9993 12.206 14.1877 11.6579 14.1875 11.0937V1.25C14.1875 1.16451 14.168 1.08014 14.1305 1.00331C14.0931 0.926483 14.0385 0.85921 13.9712 0.806607ZM2.65625 14.75C2.37812 14.75 2.10624 14.6675 1.87498 14.513C1.64372 14.3585 1.46348 14.1389 1.35705 13.8819C1.25061 13.6249 1.22276 13.3422 1.27702 13.0694C1.33128 12.7966 1.46521 12.546 1.66188 12.3494C1.85855 12.1527 2.10912 12.0188 2.38191 11.9645C2.65469 11.9103 2.93744 11.9381 3.1944 12.0445C3.45136 12.151 3.67099 12.3312 3.82551 12.5625C3.98003 12.7937 4.0625 13.0656 4.0625 13.3437C4.06209 13.7166 3.9138 14.074 3.65017 14.3377C3.38653 14.6013 3.02909 14.7496 2.65625 14.75ZM5.1875 6.15458V3.93917L13.0625 1.97042V4.18583L5.1875 6.15458ZM11.6563 12.5C11.3781 12.5 11.1062 12.4175 10.875 12.263C10.6437 12.1085 10.4635 11.8889 10.357 11.6319C10.2506 11.3749 10.2228 11.0922 10.277 10.8194C10.3313 10.5466 10.4652 10.296 10.6619 10.0994C10.8586 9.90271 11.1091 9.76878 11.3819 9.71452C11.6547 9.66026 11.9374 9.68811 12.1944 9.79454C12.4514 9.90098 12.671 10.0812 12.8255 10.3125C12.98 10.5437 13.0625 10.8156 13.0625 11.0937C13.0621 11.4666 12.9138 11.824 12.6502 12.0877C12.3865 12.3513 12.0291 12.4996 11.6563 12.5Z" fill="#768989"/>
</svg>
