<svg width="28" height="28" viewBox="0 0 28 28" fill="none" xmlns="http://www.w3.org/2000/svg">
<path d="M26.25 21.875L25.0128 20.6378L22.75 22.9005V15.75H21V22.9005L18.7372 20.6378L17.5 21.875L21.875 26.25L26.25 21.875Z" fill="#21BAA8"/>
<path d="M15.75 24.5003H7V3.5003H14V8.7503C14.0014 9.214 14.1862 9.65832 14.5141 9.98621C14.842 10.3141 15.2863 10.4989 15.75 10.5003H21V13.1253H22.75V8.7503C22.7531 8.6353 22.7312 8.521 22.6859 8.41527C22.6406 8.30953 22.5729 8.21487 22.4875 8.1378L16.3625 2.0128C16.2855 1.92735 16.1908 1.85963 16.0851 1.81431C15.9793 1.76899 15.865 1.74715 15.75 1.7503H7C6.5363 1.75168 6.09198 1.9365 5.76409 2.26439C5.4362 2.59228 5.25138 3.03659 5.25 3.5003V24.5003C5.25138 24.964 5.4362 25.4083 5.76409 25.7362C6.09198 26.0641 6.5363 26.2489 7 26.2503H15.75V24.5003ZM15.75 3.8503L20.65 8.7503H15.75V3.8503Z" fill="#21BAA8"/>
</svg>
