<svg width="18" height="18" viewBox="0 0 18 18" fill="none" xmlns="http://www.w3.org/2000/svg">
<path d="M16.875 14.0625L16.0796 13.2671L14.625 14.7218V10.125H13.5V14.7218L12.0454 13.2671L11.25 14.0625L14.0625 16.875L16.875 14.0625Z" fill="#1a1a1a"/>
<path d="M10.125 15.7499H4.5V2.24995H9V5.62495C9.00089 5.92304 9.1197 6.20867 9.33049 6.41946C9.54127 6.63024 9.82691 6.74906 10.125 6.74995H13.5V8.43745H14.625V5.62495C14.627 5.55102 14.6129 5.47754 14.5838 5.40957C14.5547 5.3416 14.5112 5.28074 14.4563 5.2312L10.5188 1.2937C10.4692 1.23877 10.4084 1.19523 10.3404 1.1661C10.2724 1.13696 10.1989 1.12292 10.125 1.12495H4.5C4.20191 1.12584 3.91627 1.24465 3.70549 1.45544C3.4947 1.66622 3.37589 1.95185 3.375 2.24995V15.7499C3.37589 16.048 3.4947 16.3337 3.70549 16.5445C3.91627 16.7552 4.20191 16.8741 4.5 16.8749H10.125V15.7499ZM10.125 2.47495L13.275 5.62495H10.125V2.47495Z" fill="#1a1a1a"/>
</svg>
