<svg width="28" height="28" viewBox="0 0 28 28" fill="none" xmlns="http://www.w3.org/2000/svg">
<path d="M22.4875 8.13781L16.3625 2.01281C16.2855 1.92731 16.1909 1.85956 16.0851 1.81424C15.9793 1.76892 15.865 1.7471 15.75 1.75031H7C6.5363 1.75169 6.09198 1.93651 5.76409 2.2644C5.4362 2.59229 5.25138 3.03661 5.25 3.50031V24.5003C5.25138 24.964 5.4362 25.4083 5.76409 25.7362C6.09198 26.0641 6.5363 26.2489 7 26.2503H21C21.4637 26.2489 21.908 26.0641 22.2359 25.7362C22.5638 25.4083 22.7486 24.964 22.75 24.5003V8.75031C22.7532 8.6353 22.7314 8.52096 22.6861 8.41521C22.6407 8.30945 22.573 8.21481 22.4875 8.13781ZM15.75 3.85031L20.65 8.75031H15.75V3.85031ZM21 24.5003H7V3.50031H14V8.75031C14.0014 9.21401 14.1862 9.65833 14.5141 9.98622C14.842 10.3141 15.2863 10.4989 15.75 10.5003H21V24.5003Z" fill="#768989"/>
</svg>
