<svg width="25" height="24" viewBox="0 0 25 24" fill="none" xmlns="http://www.w3.org/2000/svg">
<path fill-rule="evenodd" clip-rule="evenodd" d="M12.5 2.80007C7.41893 2.80007 3.29995 6.91905 3.29995 12.0001C3.29995 17.0811 7.41893 21.2001 12.5 21.2001C17.581 21.2001 21.6999 17.0811 21.6999 12.0001C21.6999 6.91905 17.581 2.80007 12.5 2.80007ZM1.69995 12.0001C1.69995 6.0354 6.53528 1.20007 12.5 1.20007C18.4646 1.20007 23.3 6.0354 23.3 12.0001C23.3 17.9648 18.4646 22.8001 12.5 22.8001C6.53528 22.8001 1.69995 17.9648 1.69995 12.0001Z" fill="#B1BDBD"/>
<path fill-rule="evenodd" clip-rule="evenodd" d="M1.69995 12C1.69995 11.5581 2.05812 11.2 2.49995 11.2H22.5C22.9418 11.2 23.3 11.5581 23.3 12C23.3 12.4418 22.9418 12.8 22.5 12.8H2.49995C2.05812 12.8 1.69995 12.4418 1.69995 12Z" fill="#B1BDBD"/>
<path fill-rule="evenodd" clip-rule="evenodd" d="M9.30013 12C9.37058 15.2048 10.5006 18.2872 12.5 20.7717C14.4993 18.2872 15.6293 15.2048 15.6998 12C15.6293 8.79514 14.4993 5.71276 12.5 3.22825C10.5006 5.71276 9.37058 8.79514 9.30013 12ZM12.5 1.99999L11.9093 1.46045C9.27721 4.34198 7.78141 8.08148 7.70012 11.9833C7.69989 11.9944 7.69989 12.0055 7.70012 12.0167C7.78141 15.9185 9.27721 19.658 11.9093 22.5395C12.0608 22.7055 12.2752 22.8 12.5 22.8C12.7247 22.8 12.9391 22.7055 13.0906 22.5395C15.7227 19.658 17.2185 15.9185 17.2998 12.0167C17.3 12.0055 17.3 11.9944 17.2998 11.9833C17.2185 8.08148 15.7227 4.34198 13.0906 1.46045L12.5 1.99999Z" fill="#B1BDBD"/>
</svg>
