<svg width="18" height="18" viewBox="0 0 16 16" fill="none" xmlns="http://www.w3.org/2000/svg">
<path d="M8.00039 0.000137329C5.82779 0.000137329 5.55513 0.00963748 4.70183 0.0484708C3.85019 0.0874708 3.26887 0.222304 2.76022 0.420137C2.23407 0.624471 1.78775 0.897804 1.3431 1.34264C0.898109 1.7873 0.624784 2.23364 0.41979 2.75964C0.221463 3.26847 0.0864668 3.84997 0.0481346 4.7013C0.0099691 5.55464 -3.05176e-05 5.82747 -3.05176e-05 8.00013C-3.05176e-05 10.1728 0.00963601 10.4446 0.0483015 11.298C0.087467 12.1496 0.222296 12.731 0.419957 13.2396C0.624451 13.7658 0.897775 14.2121 1.3426 14.6568C1.78708 15.1018 2.2334 15.3758 2.75922 15.5801C3.2682 15.778 3.84969 15.9128 4.70116 15.9518C5.55447 15.9906 5.82696 16.0001 7.99939 16.0001C10.1722 16.0001 10.444 15.9906 11.2973 15.9518C12.1489 15.9128 12.7309 15.778 13.2399 15.5801C13.7659 15.3758 14.2115 15.1018 14.656 14.6568C15.101 14.2121 15.3743 13.7658 15.5793 13.2398C15.776 12.731 15.911 12.1495 15.951 11.2981C15.9893 10.4448 15.9993 10.1728 15.9993 8.00013C15.9993 5.82747 15.9893 5.5548 15.951 4.70147C15.911 3.8498 15.776 3.26847 15.5793 2.7598C15.3743 2.23364 15.101 1.7873 14.656 1.34264C14.211 0.897637 13.7661 0.624304 13.2394 0.420137C12.7294 0.222304 12.1478 0.0874708 11.2961 0.0484708C10.4428 0.00963748 10.1712 0.000137329 7.99789 0.000137329H8.00039ZM7.28275 1.4418C7.49574 1.44147 7.7334 1.4418 8.00039 1.4418C10.1363 1.4418 10.3895 1.44947 11.233 1.4878C12.0129 1.52347 12.4363 1.6538 12.7182 1.7633C13.0916 1.9083 13.3577 2.08164 13.6376 2.36164C13.9175 2.64164 14.0909 2.9083 14.2362 3.28164C14.3457 3.5633 14.4762 3.98664 14.5117 4.76664C14.55 5.60997 14.5584 5.8633 14.5584 7.9983C14.5584 10.1333 14.55 10.3866 14.5117 11.23C14.476 12.01 14.3457 12.4333 14.2362 12.715C14.0912 13.0883 13.9175 13.3541 13.6376 13.634C13.3576 13.914 13.0917 14.0873 12.7182 14.2323C12.4366 14.3423 12.0129 14.4723 11.233 14.508C10.3897 14.5463 10.1363 14.5546 8.00039 14.5546C5.86429 14.5546 5.61113 14.5463 4.76782 14.508C3.98785 14.472 3.56453 14.3416 3.28237 14.2321C2.90905 14.0871 2.64239 13.9138 2.3624 13.6338C2.08241 13.3538 1.90908 13.0878 1.76375 12.7143C1.65425 12.4326 1.52376 12.0093 1.48826 11.2293C1.44993 10.386 1.44226 10.1326 1.44226 7.9963C1.44226 5.85997 1.44993 5.60797 1.48826 4.76464C1.52392 3.98464 1.65425 3.5613 1.76375 3.2793C1.90874 2.90597 2.08241 2.6393 2.3624 2.3593C2.64239 2.0793 2.90905 1.90597 3.28237 1.76064C3.56436 1.65064 3.98785 1.52064 4.76782 1.4848C5.5058 1.45147 5.79179 1.44147 7.28275 1.4398V1.4418ZM12.2706 2.77014C11.7406 2.77014 11.3106 3.19964 11.3106 3.7298C11.3106 4.2598 11.7406 4.6898 12.2706 4.6898C12.8006 4.6898 13.2306 4.2598 13.2306 3.7298C13.2306 3.1998 12.8006 2.7698 12.2706 2.7698V2.77014ZM8.00039 3.8918C5.73163 3.8918 3.89218 5.7313 3.89218 8.00013C3.89218 10.269 5.73163 12.1076 8.00039 12.1076C10.2692 12.1076 12.1079 10.269 12.1079 8.00013C12.1079 5.7313 10.269 3.8918 8.00023 3.8918H8.00039ZM8.00039 5.33347C9.47301 5.33347 10.667 6.5273 10.667 8.00013C10.667 9.4728 9.47301 10.6668 8.00039 10.6668C6.5276 10.6668 5.33381 9.4728 5.33381 8.00013C5.33381 6.5273 6.5276 5.33347 8.00039 5.33347Z" fill="#1A1A1A"/>
</svg>
