<svg width="18" height="18" viewBox="0 0 16 16" fill="none" xmlns="http://www.w3.org/2000/svg">
<path d="M7.99962 0.0263519C3.59495 0.0263519 0.0240946 3.59711 0.0240946 8.00178C0.0240946 12.4066 3.59495 15.9771 7.99962 15.9771C12.4048 15.9771 15.9752 12.4066 15.9752 8.00178C15.9752 3.5974 12.4048 0.0267329 7.99953 0.0267329L7.99962 0.0263519ZM11.6571 11.5292C11.5143 11.7635 11.2076 11.8378 10.9733 11.694C9.10076 10.5502 6.74343 10.2911 3.96724 10.9254C3.69971 10.9864 3.43305 10.8187 3.3721 10.5511C3.31086 10.2835 3.47781 10.0168 3.746 9.95587C6.7841 9.26149 9.3901 9.56064 11.4924 10.8454C11.7267 10.9892 11.801 11.2949 11.6571 11.5292ZM12.6333 9.3573C12.4533 9.65016 12.0705 9.74254 11.7781 9.56254C9.63429 8.24454 6.36638 7.86292 3.83067 8.63264C3.50181 8.73197 3.15448 8.54664 3.05467 8.21835C2.95562 7.88949 3.14105 7.54283 3.46933 7.44283C6.36581 6.56397 9.96667 6.98968 12.4286 8.50254C12.721 8.68254 12.8133 9.0654 12.6333 9.3574V9.3573ZM12.7171 7.09597C10.1467 5.56921 5.90572 5.42883 3.45152 6.17368C3.05743 6.29321 2.64067 6.07073 2.52124 5.67664C2.40181 5.28235 2.6241 4.86587 3.01848 4.74607C5.83572 3.89083 10.5191 4.05607 13.4785 5.81292C13.8337 6.0233 13.9499 6.48111 13.7394 6.83511C13.5299 7.18959 13.0709 7.30645 12.7175 7.09597H12.7171Z" fill="#1A1A1A"/>
</svg>
