<svg width="19" height="18" viewBox="0 0 19 18" fill="none" xmlns="http://www.w3.org/2000/svg">
<path d="M9.50044 0.272827C7.13033 0.272827 6.83288 0.283191 5.902 0.325555C4.97294 0.3681 4.33878 0.515191 3.78389 0.731009C3.2099 0.953918 2.72301 1.2521 2.23793 1.73737C1.75249 2.22246 1.45432 2.70937 1.23069 3.28319C1.01433 3.83828 0.867066 4.47264 0.825249 5.40137C0.783614 6.33228 0.772705 6.62992 0.772705 9.0001C0.772705 11.3703 0.78325 11.6668 0.825431 12.5977C0.868157 13.5268 1.01524 14.161 1.23087 14.7159C1.45396 15.2899 1.75213 15.7768 2.23739 16.2619C2.72228 16.7474 3.20918 17.0463 3.78279 17.2692C4.33805 17.485 4.97239 17.6321 5.90128 17.6746C6.83216 17.717 7.12942 17.7274 9.49935 17.7274C11.8696 17.7274 12.1662 17.717 13.0971 17.6746C14.0261 17.6321 14.661 17.485 15.2163 17.2692C15.7901 17.0463 16.2762 16.7474 16.7611 16.2619C17.2466 15.7768 17.5447 15.2899 17.7684 14.7161C17.9829 14.161 18.1302 13.5266 18.1738 12.5979C18.2156 11.667 18.2265 11.3703 18.2265 9.0001C18.2265 6.62992 18.2156 6.33246 18.1738 5.40155C18.1302 4.47246 17.9829 3.83828 17.7684 3.28337C17.5447 2.70937 17.2466 2.22246 16.7611 1.73737C16.2757 1.25192 15.7902 0.953736 15.2157 0.731009C14.6594 0.515191 14.0248 0.3681 13.0958 0.325555C12.1649 0.283191 11.8685 0.272827 9.49771 0.272827H9.50044ZM8.71755 1.84555C8.94991 1.84519 9.20917 1.84555 9.50044 1.84555C11.8305 1.84555 12.1067 1.85392 13.0269 1.89574C13.8778 1.93464 14.3396 2.07683 14.6472 2.19628C15.0545 2.35446 15.3448 2.54355 15.6501 2.84901C15.9555 3.15446 16.1446 3.44537 16.3031 3.85264C16.4226 4.15992 16.5649 4.62173 16.6037 5.47264C16.6455 6.39264 16.6546 6.66901 16.6546 8.9981C16.6546 11.3272 16.6455 11.6036 16.6037 12.5236C16.5648 13.3745 16.4226 13.8363 16.3031 14.1436C16.145 14.5508 15.9555 14.8408 15.6501 15.1461C15.3446 15.4516 15.0546 15.6406 14.6472 15.7988C14.3399 15.9188 13.8778 16.0606 13.0269 16.0995C12.1069 16.1414 11.8305 16.1505 9.50044 16.1505C7.17015 16.1505 6.89397 16.1414 5.974 16.0995C5.12312 16.0603 4.66131 15.9181 4.3535 15.7986C3.94624 15.6405 3.65534 15.4514 3.3499 15.1459C3.04445 14.8405 2.85537 14.5503 2.69683 14.1428C2.57738 13.8356 2.43502 13.3737 2.39629 12.5228C2.35448 11.6028 2.34611 11.3265 2.34611 8.99591C2.34611 6.66537 2.35448 6.39046 2.39629 5.47046C2.4352 4.61955 2.57738 4.15773 2.69683 3.8501C2.85501 3.44283 3.04445 3.15192 3.3499 2.84646C3.65534 2.54101 3.94624 2.35192 4.3535 2.19337C4.66113 2.07337 5.12312 1.93155 5.974 1.89246C6.77907 1.8561 7.09106 1.84519 8.71755 1.84337V1.84555ZM14.1588 3.29464C13.5807 3.29464 13.1116 3.76319 13.1116 4.34155C13.1116 4.91973 13.5807 5.38883 14.1588 5.38883C14.737 5.38883 15.2061 4.91973 15.2061 4.34155C15.2061 3.76337 14.737 3.29428 14.1588 3.29428V3.29464ZM9.50044 4.51828C7.02542 4.51828 5.01876 6.52501 5.01876 9.0001C5.01876 11.4752 7.02542 13.481 9.50044 13.481C11.9755 13.481 13.9814 11.4752 13.9814 9.0001C13.9814 6.52501 11.9753 4.51828 9.50026 4.51828H9.50044ZM9.50044 6.09101C11.1069 6.09101 12.4094 7.39337 12.4094 9.0001C12.4094 10.6066 11.1069 11.9092 9.50044 11.9092C7.89376 11.9092 6.59144 10.6066 6.59144 9.0001C6.59144 7.39337 7.89376 6.09101 9.50044 6.09101V6.09101Z" fill="#B1BDBD"/>
</svg>
