<svg width="25" height="24" viewBox="0 0 25 24" fill="none" xmlns="http://www.w3.org/2000/svg">
<path d="M12.4994 0.0395508C5.89242 0.0395508 0.536133 5.39569 0.536133 12.0027C0.536133 18.61 5.89242 23.9657 12.4994 23.9657C19.1071 23.9657 24.4629 18.61 24.4629 12.0027C24.4629 5.39612 19.1071 0.0401222 12.4993 0.0401222L12.4994 0.0395508V0.0395508ZM17.9857 17.2938C17.7714 17.6453 17.3114 17.7567 16.96 17.541C14.1511 15.8253 10.6151 15.4367 6.45085 16.3881C6.04956 16.4795 5.64956 16.2281 5.55814 15.8267C5.46628 15.4253 5.71671 15.0253 6.11899 14.9338C10.6761 13.8923 14.5851 14.341 17.7386 16.2681C18.09 16.4838 18.2014 16.9424 17.9857 17.2938V17.2938ZM19.45 14.036C19.18 14.4753 18.6057 14.6138 18.1671 14.3438C14.9514 12.3668 10.0496 11.7944 6.24599 12.949C5.75271 13.098 5.23171 12.82 5.08199 12.3275C4.93342 11.8343 5.21156 11.3143 5.70399 11.1643C10.0487 9.84598 15.45 10.4845 19.1429 12.7538C19.5814 13.0238 19.72 13.5981 19.45 14.0361V14.036ZM19.5757 10.644C15.72 8.35384 9.35856 8.14326 5.67728 9.26055C5.08613 9.43983 4.46099 9.10612 4.28185 8.51498C4.10271 7.92355 4.43613 7.29884 5.02771 7.11912C9.25356 5.83626 16.2786 6.08412 20.7177 8.71941C21.2506 9.03498 21.4249 9.72169 21.1091 10.2527C20.7949 10.7844 20.1063 10.9597 19.5763 10.644H19.5757Z" fill="#B1BDBD"/>
</svg>
