<svg width="28" height="28" viewBox="0 0 28 28" fill="none" xmlns="http://www.w3.org/2000/svg">
<rect x="0.5" y="0.5" width="27" height="27" rx="11.5" fill="#21BAA8" stroke="white"/>
<path fill-rule="evenodd" clip-rule="evenodd" d="M11.5673 7.71155C11.6638 7.56689 11.8261 7.48 12 7.48H16C16.1739 7.48 16.3362 7.56689 16.4327 7.71155L17.6116 9.48H20C20.4915 9.48 20.9629 9.67526 21.3105 10.0228C21.6581 10.3704 21.8533 10.8418 21.8533 11.3333V18.6667C21.8533 19.1582 21.6581 19.6296 21.3105 19.9772C20.9629 20.3247 20.4915 20.52 20 20.52H8C7.50847 20.52 7.03706 20.3247 6.6895 19.9772C6.34193 19.6296 6.14667 19.1582 6.14667 18.6667V11.3333C6.14667 10.8418 6.34193 10.3704 6.6895 10.0228C7.03706 9.67526 7.50847 9.48 8 9.48H10.3884L11.5673 7.71155ZM12.2783 8.52L11.0993 10.2884C11.0029 10.4331 10.8405 10.52 10.6667 10.52H8C7.78429 10.52 7.57742 10.6057 7.42489 10.7582C7.27236 10.9107 7.18667 11.1176 7.18667 11.3333V18.6667C7.18667 18.8824 7.27236 19.0892 7.42489 19.2418C7.57742 19.3943 7.78429 19.48 8 19.48H20C20.2157 19.48 20.4226 19.3943 20.5751 19.2418C20.7276 19.0892 20.8133 18.8824 20.8133 18.6667V11.3333C20.8133 11.1176 20.7276 10.9107 20.5751 10.7582C20.4226 10.6057 20.2157 10.52 20 10.52H17.3333C17.1595 10.52 16.9971 10.4331 16.9007 10.2884L15.7217 8.52H12.2783Z" fill="white"/>
<path fill-rule="evenodd" clip-rule="evenodd" d="M14 12.52C12.8145 12.52 11.8534 13.4811 11.8534 14.6667C11.8534 15.8522 12.8145 16.8133 14 16.8133C15.1856 16.8133 16.1467 15.8522 16.1467 14.6667C16.1467 13.4811 15.1856 12.52 14 12.52ZM10.8134 14.6667C10.8134 12.9067 12.2401 11.48 14 11.48C15.76 11.48 17.1867 12.9067 17.1867 14.6667C17.1867 16.4266 15.76 17.8533 14 17.8533C12.2401 17.8533 10.8134 16.4266 10.8134 14.6667Z" fill="white"/>
</svg>
