<svg width="8" height="5" viewBox="0 0 8 5" fill="none" xmlns="http://www.w3.org/2000/svg">
<path fill-rule="evenodd" clip-rule="evenodd" d="M7.32719 4.17583C7.09288 4.41014 6.71298 4.41014 6.47867 4.17583L3.32719 1.02435C3.09288 0.79004 3.09288 0.410141 3.32719 0.175827C3.56151 -0.0584878 3.94141 -0.0584878 4.17572 0.175827L7.32719 3.3273C7.56151 3.56161 7.56151 3.94151 7.32719 4.17583Z" fill="#1A1A1A"/>
<path fill-rule="evenodd" clip-rule="evenodd" d="M4.17572 0.175827C4.41004 0.410141 4.41004 0.79004 4.17572 1.02435L1.02425 4.17583C0.789935 4.41014 0.410037 4.41014 0.175722 4.17583C-0.0585924 3.94151 -0.0585924 3.56161 0.175722 3.3273L3.32719 0.175827C3.56151 -0.0584878 3.94141 -0.0584878 4.17572 0.175827Z" fill="#1A1A1A"/>
</svg>
