<svg width="14" height="17" viewBox="0 0 14 17" fill="none" xmlns="http://www.w3.org/2000/svg">
<path fill-rule="evenodd" clip-rule="evenodd" d="M7 1.15254C5.44659 1.15254 3.9568 1.77486 2.85837 2.8826C1.75995 3.99033 1.14286 5.49275 1.14286 7.05932C1.14286 9.34888 2.61614 11.5495 4.20054 13.2361C4.98106 14.067 5.76352 14.7467 6.35149 15.2188C6.61286 15.4287 6.83488 15.5969 7 15.7183C7.16511 15.5969 7.38714 15.4287 7.64851 15.2188C8.23647 14.7467 9.01894 14.067 9.79946 13.2361C11.3839 11.5495 12.8571 9.34888 12.8571 7.05932C12.8571 5.49275 12.2401 3.99033 11.1416 2.8826C10.0432 1.77486 8.55341 1.15254 7 1.15254ZM7 16.4237C6.68303 16.9032 6.68288 16.9031 6.6827 16.903L6.68223 16.9027L6.68085 16.9017L6.67635 16.8987L6.66049 16.8879C6.64693 16.8786 6.62745 16.8652 6.60245 16.8477C6.55245 16.8128 6.48031 16.7617 6.38921 16.6953C6.20705 16.5627 5.94872 16.3687 5.63958 16.1204C5.02219 15.6246 4.19751 14.9087 3.37088 14.0287C1.74101 12.2937 0 9.81213 0 7.05932C0 5.18707 0.737498 3.39151 2.05025 2.06763C3.36301 0.743748 5.14348 0 7 0C8.85651 0 10.637 0.743748 11.9497 2.06763C13.2625 3.39151 14 5.18707 14 7.05932C14 9.81213 12.259 12.2937 10.6291 14.0287C9.80249 14.9087 8.97781 15.6246 8.36042 16.1204C8.05128 16.3687 7.79295 16.5627 7.61079 16.6953C7.51969 16.7617 7.44755 16.8128 7.39755 16.8477C7.37254 16.8652 7.35306 16.8786 7.33951 16.8879L7.32365 16.8987L7.31915 16.9017L7.31777 16.9027L7.3173 16.903C7.31712 16.9031 7.31697 16.9032 7 16.4237ZM7 16.4237L7.31697 16.9032C7.12503 17.0323 6.87497 17.0323 6.68303 16.9032L7 16.4237Z" fill="#768989"/>
<path fill-rule="evenodd" clip-rule="evenodd" d="M7 5.26316C6.04077 5.26316 5.26316 6.04077 5.26316 7C5.26316 7.95923 6.04077 8.73684 7 8.73684C7.95923 8.73684 8.73684 7.95923 8.73684 7C8.73684 6.04077 7.95923 5.26316 7 5.26316ZM4 7C4 5.34315 5.34315 4 7 4C8.65685 4 10 5.34315 10 7C10 8.65685 8.65685 10 7 10C5.34315 10 4 8.65685 4 7Z" fill="#768989"/>
</svg>
