<svg width="16" height="14" viewBox="0 0 16 14" fill="none" xmlns="http://www.w3.org/2000/svg">
<path fill-rule="evenodd" clip-rule="evenodd" d="M0.0167236 1.49998C0.0167236 1.14099 0.307739 0.849976 0.666724 0.849976H15.3334C15.6924 0.849976 15.9834 1.14099 15.9834 1.49998C15.9834 1.85896 15.6924 2.14998 15.3334 2.14998H0.666724C0.307739 2.14998 0.0167236 1.85896 0.0167236 1.49998ZM0.0167236 6.99998C0.0167236 6.64099 0.307739 6.34998 0.666724 6.34998H15.3334C15.6924 6.34998 15.9834 6.64099 15.9834 6.99998C15.9834 7.35896 15.6924 7.64998 15.3334 7.64998H0.666724C0.307739 7.64998 0.0167236 7.35896 0.0167236 6.99998ZM0.0167236 12.5C0.0167236 12.141 0.307739 11.85 0.666724 11.85H7.08339C7.44237 11.85 7.73339 12.141 7.73339 12.5C7.73339 12.859 7.44237 13.15 7.08339 13.15H0.666724C0.307739 13.15 0.0167236 12.859 0.0167236 12.5Z" fill="#1A1A1A"/>
</svg>
