<svg width="12" height="16" viewBox="0 0 12 16" fill="none" xmlns="http://www.w3.org/2000/svg">
<path d="M11.4563 4.23119L7.51875 0.29369C7.4692 0.238789 7.40835 0.195275 7.34038 0.166143C7.2724 0.137012 7.19893 0.122955 7.125 0.12494H1.5C1.20163 0.12494 0.915483 0.243467 0.704505 0.454445C0.493526 0.665424 0.375 0.951572 0.375 1.24994V14.7499C0.375 15.0483 0.493526 15.3345 0.704505 15.5454C0.915483 15.7564 1.20163 15.8749 1.5 15.8749H10.5C10.7984 15.8749 11.0845 15.7564 11.2955 15.5454C11.5065 15.3345 11.625 15.0483 11.625 14.7499V4.62494C11.627 4.55101 11.6129 4.47754 11.5838 4.40956C11.5547 4.34159 11.5112 4.28074 11.4563 4.23119ZM7.125 1.47494L10.275 4.62494H7.125V1.47494ZM10.5 14.7499H1.5V1.24994H6V4.62494C6 4.92331 6.11853 5.20946 6.3295 5.42044C6.54048 5.63141 6.82663 5.74994 7.125 5.74994H10.5V14.7499Z" fill="#768989"/>
</svg>
