<svg width="18" height="13" viewBox="0 0 18 13" fill="none" xmlns="http://www.w3.org/2000/svg">
<path fill-rule="evenodd" clip-rule="evenodd" d="M4.95675 1.75975C6.08117 0.790152 7.51527 0.254656 9 0.25C12.0262 0.25 14.5384 2.5 14.8118 5.40137C16.6028 5.6545 18 7.15412 18 8.99463C18 11.0151 16.3148 12.625 14.2729 12.625H4.25362C1.9215 12.625 0 10.7867 0 8.48275C0 6.49937 1.42425 4.85687 3.30975 4.44062C3.47062 3.46975 4.095 2.50225 4.95675 1.75975ZM5.69137 2.61137C4.83975 3.346 4.39425 4.23138 4.39425 4.92438V5.42838L3.89363 5.4835C2.322 5.65562 1.125 6.946 1.125 8.48275C1.125 10.1331 2.50875 11.5 4.25362 11.5H14.2729C15.7275 11.5 16.875 10.3615 16.875 8.99463C16.875 7.62662 15.7275 6.48812 14.2729 6.48812H13.7104V5.92562C13.7115 3.42813 11.619 1.375 9 1.375C7.78486 1.37985 6.61145 1.81874 5.69137 2.6125V2.61137Z" fill="#768989"/>
<path fill-rule="evenodd" clip-rule="evenodd" d="M8.60173 3.78928C8.65398 3.73689 8.71605 3.69533 8.78439 3.66698C8.85273 3.63862 8.92599 3.62402 8.99998 3.62402C9.07397 3.62402 9.14723 3.63862 9.21557 3.66698C9.2839 3.69533 9.34598 3.73689 9.39823 3.78928L11.6482 6.03928C11.7005 6.09158 11.742 6.15367 11.7703 6.222C11.7986 6.29033 11.8132 6.36357 11.8132 6.43753C11.8132 6.51149 11.7986 6.58473 11.7703 6.65306C11.742 6.72139 11.7005 6.78348 11.6482 6.83578C11.5959 6.88808 11.5338 6.92956 11.4655 6.95787C11.3972 6.98617 11.3239 7.00074 11.25 7.00074C11.176 7.00074 11.1028 6.98617 11.0344 6.95787C10.9661 6.92956 10.904 6.88808 10.8517 6.83578L9.56248 5.5454V9.81253C9.56248 9.96171 9.50322 10.1048 9.39773 10.2103C9.29224 10.3158 9.14916 10.375 8.99998 10.375C8.85079 10.375 8.70772 10.3158 8.60223 10.2103C8.49674 10.1048 8.43748 9.96171 8.43748 9.81253V5.5454L7.14823 6.83578C7.04261 6.9414 6.89935 7.00074 6.74998 7.00074C6.60061 7.00074 6.45735 6.9414 6.35173 6.83578C6.24611 6.73016 6.18677 6.5869 6.18677 6.43753C6.18677 6.28816 6.24611 6.1449 6.35173 6.03928L8.60173 3.78928Z" fill="#768989"/>
</svg>
