<svg width="16" height="16" viewBox="0 0 16 16" fill="none" xmlns="http://www.w3.org/2000/svg">
<path fill-rule="evenodd" clip-rule="evenodd" d="M7.55001 1.11852C3.998 1.11852 1.11852 3.998 1.11852 7.55001C1.11852 11.102 3.998 13.9815 7.55001 13.9815C11.102 13.9815 13.9815 11.102 13.9815 7.55001C13.9815 3.998 11.102 1.11852 7.55001 1.11852ZM0 7.55001C0 3.38026 3.38026 0 7.55001 0C11.7198 0 15.1 3.38026 15.1 7.55001C15.1 11.7198 11.7198 15.1 7.55001 15.1C3.38026 15.1 0 11.7198 0 7.55001Z" fill="#768989"/>
<path fill-rule="evenodd" clip-rule="evenodd" d="M4.35826 7.15453C4.57667 6.93612 4.93077 6.93612 5.14917 7.15453L7.55002 9.55537L9.95086 7.15453C10.1693 6.93612 10.5234 6.93612 10.7418 7.15453C10.9602 7.37293 10.9602 7.72703 10.7418 7.94544L7.94548 10.7417C7.72707 10.9601 7.37297 10.9601 7.15456 10.7417L4.35826 7.94544C4.13986 7.72703 4.13986 7.37293 4.35826 7.15453Z" fill="#768989"/>
<path fill-rule="evenodd" clip-rule="evenodd" d="M7.54998 4.19434C7.85885 4.19434 8.10924 4.44473 8.10924 4.7536V10.3462C8.10924 10.6551 7.85885 10.9055 7.54998 10.9055C7.24111 10.9055 6.99072 10.6551 6.99072 10.3462V4.7536C6.99072 4.44473 7.24111 4.19434 7.54998 4.19434Z" fill="#768989"/>
</svg>
