<svg width="13" height="17" viewBox="0 0 13 17" fill="none" xmlns="http://www.w3.org/2000/svg">
<path d="M12.2342 0H0.498046C0.222992 0 0 0.222992 0 0.498046V15.0349C0 15.167 0.0524942 15.2936 0.145894 15.3871L1.61294 16.8541C1.80741 17.0486 2.12277 17.0486 2.31727 16.8541L3.43213 15.7392L4.54696 16.8541C4.64036 16.9475 4.76703 17 4.89914 17C5.03123 17 5.15793 16.9475 5.25133 16.8541L6.36612 15.7392L7.48098 16.8541C7.57438 16.9475 7.70105 17 7.83313 17C7.96525 17 8.09192 16.9475 8.18532 16.8541L9.30014 15.7392L10.415 16.8541C10.5123 16.9514 10.6397 17 10.7672 17C10.8946 17 11.0221 16.9514 11.1193 16.8541L12.5864 15.3871C12.6798 15.2937 12.7323 15.167 12.7323 15.0349V0.498046C12.7322 0.222992 12.5093 0 12.2342 0ZM10.7672 15.7976L9.6523 14.6827C9.5589 14.5893 9.43219 14.5368 9.30011 14.5368C9.168 14.5368 9.04133 14.5893 8.94793 14.6827L7.8331 15.7976L6.71824 14.6827C6.52377 14.4882 6.20841 14.4882 6.0139 14.6827L4.89905 15.7976L3.78422 14.6827C3.69082 14.5893 3.56415 14.5368 3.43203 14.5368C3.29995 14.5368 3.17328 14.5893 3.07988 14.6827L1.96502 15.7976L0.996026 14.8286V0.996092H11.7361V14.8286H11.7362L10.7672 15.7976Z" fill="#768989"/>
</svg>
