<svg width="18" height="18" viewBox="0 0 18 18" fill="none" xmlns="http://www.w3.org/2000/svg">
<path d="M14.625 9.32963V7.875H13.5V9.5625C13.5 9.71167 13.5593 9.85472 13.6648 9.96019L15.1875 11.4829V12.375H2.8125V11.4829L4.33519 9.96019C4.44068 9.85472 4.49997 9.71167 4.5 9.5625V7.3125C4.49843 6.52207 4.70548 5.74523 5.10024 5.06043C5.49499 4.37563 6.06347 3.80713 6.74825 3.41235C7.43304 3.01758 8.20988 2.8105 9.00031 2.81204C9.79073 2.81358 10.5668 3.02368 11.25 3.42112V2.16394C10.7146 1.92686 10.1451 1.77575 9.5625 1.71619V0.5625H8.4375V1.71562C7.0507 1.85677 5.76549 2.50713 4.83039 3.54093C3.8953 4.57473 3.37674 5.91853 3.375 7.3125V9.32963L1.85231 10.8523C1.74682 10.9578 1.68753 11.1008 1.6875 11.25V12.9375C1.6875 13.0867 1.74676 13.2298 1.85225 13.3352C1.95774 13.4407 2.10082 13.5 2.25 13.5H6.1875V14.0625C6.1875 14.8084 6.48382 15.5238 7.01126 16.0512C7.53871 16.5787 8.25408 16.875 9 16.875C9.74592 16.875 10.4613 16.5787 10.9887 16.0512C11.5162 15.5238 11.8125 14.8084 11.8125 14.0625V13.5H15.75C15.8992 13.5 16.0423 13.4407 16.1477 13.3352C16.2532 13.2298 16.3125 13.0867 16.3125 12.9375V11.25C16.3125 11.1008 16.2532 10.9578 16.1477 10.8523L14.625 9.32963ZM10.6875 14.0625C10.6875 14.5101 10.5097 14.9393 10.1932 15.2557C9.87678 15.5722 9.44755 15.75 9 15.75C8.55245 15.75 8.12322 15.5722 7.80676 15.2557C7.49029 14.9393 7.3125 14.5101 7.3125 14.0625V13.5H10.6875V14.0625Z" fill="#768989"/>
<path d="M14.625 6.75C15.8676 6.75 16.875 5.74264 16.875 4.5C16.875 3.25736 15.8676 2.25 14.625 2.25C13.3824 2.25 12.375 3.25736 12.375 4.5C12.375 5.74264 13.3824 6.75 14.625 6.75Z" fill="#1A1A1A"/>
</svg>
