<svg width="16" height="17" viewBox="0 0 16 17" fill="none" xmlns="http://www.w3.org/2000/svg">
<path d="M13.625 9.32963V7.875H12.5V9.5625C12.5 9.71167 12.5593 9.85472 12.6648 9.96019L14.1875 11.4829V12.375H1.8125V11.4829L3.33519 9.96019C3.44068 9.85472 3.49997 9.71167 3.5 9.5625V7.3125C3.49843 6.52207 3.70548 5.74523 4.10024 5.06043C4.49499 4.37563 5.06347 3.80713 5.74825 3.41235C6.43304 3.01758 7.20988 2.8105 8.00031 2.81204C8.79073 2.81358 9.56676 3.02368 10.25 3.42112V2.16394C9.71455 1.92686 9.14505 1.77575 8.5625 1.71619V0.5625H7.4375V1.71562C6.0507 1.85677 4.76549 2.50713 3.83039 3.54093C2.8953 4.57473 2.37674 5.91853 2.375 7.3125V9.32963L0.852312 10.8523C0.746816 10.9578 0.687532 11.1008 0.6875 11.25V12.9375C0.6875 13.0867 0.746763 13.2298 0.852252 13.3352C0.957742 13.4407 1.10082 13.5 1.25 13.5H5.1875V14.0625C5.1875 14.8084 5.48382 15.5238 6.01126 16.0512C6.53871 16.5787 7.25408 16.875 8 16.875C8.74592 16.875 9.46129 16.5787 9.98874 16.0512C10.5162 15.5238 10.8125 14.8084 10.8125 14.0625V13.5H14.75C14.8992 13.5 15.0423 13.4407 15.1477 13.3352C15.2532 13.2298 15.3125 13.0867 15.3125 12.9375V11.25C15.3125 11.1008 15.2532 10.9578 15.1477 10.8523L13.625 9.32963ZM9.6875 14.0625C9.6875 14.5101 9.50971 14.9393 9.19324 15.2557C8.87678 15.5722 8.44755 15.75 8 15.75C7.55245 15.75 7.12322 15.5722 6.80676 15.2557C6.49029 14.9393 6.3125 14.5101 6.3125 14.0625V13.5H9.6875V14.0625Z" fill="#768989"/>
</svg>
