<svg width="18" height="18" viewBox="0 0 18 18" fill="none" xmlns="http://www.w3.org/2000/svg">
<path d="M6 8C6.55228 8 7 7.55228 7 7C7 6.44772 6.55228 6 6 6C5.44772 6 5 6.44772 5 7C5 7.55228 5.44772 8 6 8Z" fill="#1a1a1a"/>
<path d="M9.63435 17C9.55062 17.0005 9.46762 16.9844 9.39011 16.9528C9.3126 16.9211 9.2421 16.8744 9.18265 16.8154L2.37536 9.99999C2.13641 9.76241 2.00142 9.43973 2 9.10272V4.27273C2 3.93518 2.13406 3.61146 2.37267 3.37277C2.61129 3.13409 2.93493 3 3.27239 3H8.10112C8.43803 3.00142 8.76063 3.13644 8.99816 3.37545L15.8118 10.1845C15.8714 10.2437 15.9188 10.3141 15.9511 10.3916C15.9834 10.4692 16 10.5524 16 10.6364C16 10.7204 15.9834 10.8035 15.9511 10.8811C15.9188 10.9586 15.8714 11.029 15.8118 11.0882L10.0861 16.8154C10.0266 16.8744 9.9561 16.9211 9.87859 16.9528C9.80108 16.9844 9.71808 17.0005 9.63435 17ZM3.27239 4.27273V9.10272L9.63435 15.4664L14.4631 10.6364L8.10112 4.27273H3.27239Z" fill="#1a1a1a"/>
<path d="M16.8118 6.90755L9.99816 0.360979C9.76063 0.131184 9.43803 0.00136608 9.10112 0H4.27239C3.93493 0 3.61129 0.128921 3.37267 0.358401C3.13406 0.587881 3 0.899123 3 1.22366V2.44731H4.27239V1.22366H9.10112L15.4631 7.34194L14.636 8.1312L15.5394 9L16.8118 7.77634C16.8714 7.71947 16.9188 7.6518 16.9511 7.57724C16.9834 7.50268 17 7.42271 17 7.34194C17 7.26118 16.9834 7.18121 16.9511 7.10665C16.9188 7.03209 16.8714 6.96442 16.8118 6.90755Z" fill="#1a1a1a"/>
</svg>
