<svg width="25" height="14" viewBox="0 0 25 14" fill="none" xmlns="http://www.w3.org/2000/svg">
<path fill-rule="evenodd" clip-rule="evenodd" d="M21.8625 9.75765C21.8625 9.75765 23.8029 11.674 24.2829 12.5608C24.2922 12.5736 24.2995 12.5878 24.3045 12.6028C24.5001 12.9304 24.5481 13.1873 24.4521 13.3769C24.2901 13.6901 23.7417 13.8473 23.5557 13.8605H20.1261C19.8873 13.8605 19.3905 13.7981 18.7857 13.3805C18.3237 13.0577 17.8641 12.5261 17.4189 12.0065C16.7541 11.2348 16.1793 10.5652 15.5973 10.5652C15.5238 10.5651 15.4508 10.5773 15.3813 10.6013C14.9409 10.7405 14.3817 11.368 14.3817 13.0397C14.3817 13.5629 13.9689 13.8605 13.6797 13.8605H12.1089C11.5737 13.8605 8.78731 13.6733 6.31651 11.0681C3.28891 7.87845 0.569708 1.48005 0.543308 1.42365C0.374108 1.00965 0.729308 0.784049 1.11331 0.784049H4.57651C5.04091 0.784049 5.19211 1.06485 5.29771 1.31685C5.42011 1.60605 5.87371 2.76285 6.61771 4.06245C7.82251 6.17685 8.56291 7.03725 9.15451 7.03725C9.26566 7.03758 9.37492 7.0086 9.47131 6.95325C10.2441 6.52845 10.1001 3.76845 10.0641 3.19965C10.0641 3.08925 10.0629 1.96725 9.66691 1.42485C9.38371 1.03605 8.90131 0.884848 8.60971 0.829648C8.68771 0.716848 8.85331 0.544048 9.06571 0.442048C9.59491 0.178048 10.5513 0.139648 11.5005 0.139648H12.0273C13.0569 0.154048 13.3233 0.220048 13.6977 0.314848C14.4513 0.494848 14.4657 0.983249 14.3997 2.64645C14.3805 3.12165 14.3601 3.65685 14.3601 4.28685C14.3601 4.42125 14.3541 4.57125 14.3541 4.72365C14.3313 5.57685 14.3013 6.53805 14.9037 6.93285C14.9818 6.98152 15.0721 7.0073 15.1641 7.00725C15.3729 7.00725 15.9981 7.00725 17.6937 4.09725C18.4377 2.81205 19.0137 1.29645 19.0533 1.18245C19.0869 1.11885 19.1877 0.940048 19.3101 0.868048C19.3972 0.821723 19.4947 0.798581 19.5933 0.800849H23.6673C24.1113 0.800849 24.4125 0.868049 24.4713 1.03605C24.5697 1.30845 24.4521 2.14005 22.5921 4.65525C22.2789 5.07405 22.0041 5.43645 21.7629 5.75325C20.0769 7.96605 20.0769 8.07765 21.8625 9.75765V9.75765Z" fill="#B1BDBD"/>
</svg>
