<svg width="16" height="16" viewBox="0 0 16 16" fill="none" xmlns="http://www.w3.org/2000/svg">
<path d="M8 0C3.58867 0 0 3.58867 0 8C0 12.4113 3.58867 16 8 16C12.4113 16 16 12.4113 16 8C16 3.58867 12.4113 0 8 0ZM8 1.33333C11.69 1.33333 14.6667 4.31 14.6667 8C14.6667 11.69 11.69 14.6667 8 14.6667C4.31 14.6667 1.33333 11.69 1.33333 8C1.33333 4.31 4.31 1.33333 8 1.33333ZM11.6873 3.37533L10.4167 4.62467L11.3753 5.58333L12.6253 4.31267L11.6873 3.37533ZM8 4.66667C6.16667 4.66667 4.66667 6.16667 4.66667 8C4.66667 9.83333 6.16667 11.3333 8 11.3333C9.83333 11.3333 11.3333 9.83333 11.3333 8C11.3333 6.16667 9.83333 4.66667 8 4.66667ZM8 6C9.112 6 10 6.888 10 8C10 9.112 9.112 10 8 10C6.888 10 6 9.112 6 8C6 6.888 6.888 6 8 6ZM8 7.33333C7.63333 7.33333 7.33333 7.63333 7.33333 8C7.33333 8.36667 7.63333 8.66667 8 8.66667C8.36667 8.66667 8.66667 8.36667 8.66667 8C8.66667 7.63333 8.36667 7.33333 8 7.33333ZM4.62467 10.4167L3.37533 11.6873L4.31267 12.6253L5.58333 11.3753L4.62467 10.4167Z" fill="#768989"/>
</svg>
