<svg width="110" height="110" viewBox="0 0 110 110" fill="none" xmlns="http://www.w3.org/2000/svg">
<rect width="110" height="110" rx="12" fill="white"/>
<path d="M84.1184 22.5126C83.5669 22.0647 82.8409 21.9091 82.1337 22.0506L39.7051 31.48C38.6256 31.7205 37.8571 32.6775 37.8571 33.7808V71.0742C35.8819 69.8766 33.4493 69.1411 30.7857 69.1411C24.2894 69.1411 19 73.3702 19 78.5706C19 83.7709 24.2894 88 30.7857 88C37.282 88 42.5714 83.7709 42.5714 78.5706V49.8155L80.2857 41.4328V61.6447C78.3104 60.4472 75.8779 59.7117 73.2143 59.7117C66.7133 59.7117 61.4286 63.9408 61.4286 69.1411C61.4286 74.3415 66.7133 78.5706 73.2143 78.5706C79.7153 78.5706 85 74.3415 85 69.1411V24.3514C85 23.6347 84.6794 22.9605 84.1184 22.5126Z" fill="url(#paint0_linear)"/>
<defs>
<linearGradient id="paint0_linear" x1="85" y1="55.4177" x2="19" y2="55.4177" gradientUnits="userSpaceOnUse">
<stop stop-color="#C0E8FF"/>
<stop offset="1" stop-color="#D1FFD5"/>
</linearGradient>
</defs>
</svg>
