<svg width="84" height="84" viewBox="0 0 84 84" fill="none" xmlns="http://www.w3.org/2000/svg">
<rect width="84" height="84" rx="12" fill="white"/>
<path d="M63.3188 16.3961C62.8926 16.05 62.3316 15.9298 61.7851 16.0391L28.9994 23.3255C28.1652 23.5113 27.5714 24.2508 27.5714 25.1033V53.921C26.0451 52.9956 24.1654 52.4272 22.1071 52.4272C17.0873 52.4272 13 55.6952 13 59.7136C13 63.7321 17.0873 67 22.1071 67C27.127 67 31.2143 63.7321 31.2143 59.7136V37.4938L60.3571 31.0162V46.6346C58.8308 45.7092 56.9511 45.1409 54.8929 45.1409C49.8694 45.1409 45.7857 48.4088 45.7857 52.4272C45.7857 56.4457 49.8694 59.7136 54.8929 59.7136C59.9164 59.7136 64 56.4457 64 52.4272V17.817C64 17.2632 63.7523 16.7422 63.3188 16.3961Z" fill="url(#paint0_linear)"/>
<defs>
<linearGradient id="paint0_linear" x1="64" y1="41.8228" x2="13" y2="41.8228" gradientUnits="userSpaceOnUse">
<stop stop-color="#C0E8FF"/>
<stop offset="1" stop-color="#D1FFD5"/>
</linearGradient>
</defs>
</svg>
