<svg width="80" height="80" viewBox="0 0 80 80" fill="none" xmlns="http://www.w3.org/2000/svg">
<path d="M39.9998 4.44446C32.9676 4.44446 26.0933 6.52975 20.2462 10.4366C14.3991 14.3435 9.84185 19.8966 7.15074 26.3935C4.45962 32.8904 3.7555 40.0395 5.12742 46.9366C6.49934 53.8337 9.88568 60.1691 14.8582 65.1416C19.8307 70.1141 26.1661 73.5005 33.0632 74.8724C39.9604 76.2443 47.1094 75.5402 53.6063 72.8491C60.1032 70.158 65.6563 65.6007 69.5632 59.7536C73.4701 53.9065 75.5554 47.0322 75.5554 40C75.5554 30.5701 71.8093 21.5264 65.1414 14.8584C58.4734 8.19048 49.4297 4.44446 39.9998 4.44446ZM39.9998 71.1111C33.8466 71.1111 27.8316 69.2865 22.7154 65.868C17.5992 62.4494 13.6116 57.5905 11.2569 51.9057C8.90214 46.2209 8.28604 39.9655 9.48647 33.9305C10.6869 27.8956 13.6499 22.3521 18.0009 18.0011C22.3519 13.6502 27.8953 10.6871 33.9303 9.48669C39.9653 8.28627 46.2207 8.90237 51.9055 11.2571C57.5903 13.6118 62.4492 17.5994 65.8677 22.7156C69.2863 27.8318 71.1109 33.8468 71.1109 40C71.1109 48.2512 67.8331 56.1644 61.9987 61.9989C56.1642 67.8334 48.251 71.1111 39.9998 71.1111Z" fill="url(#paint0_linear)"/>
<path d="M62.2223 26.8889C61.806 26.475 61.2427 26.2427 60.6556 26.2427C60.0686 26.2427 59.5053 26.475 59.089 26.8889L34.4223 51.4444L21.089 38.1111C20.6823 37.672 20.1179 37.4125 19.5198 37.3896C18.9218 37.3666 18.3392 37.5822 17.9001 37.9889C17.461 38.3955 17.2015 38.96 17.1785 39.558C17.1556 40.156 17.3712 40.7387 17.7779 41.1778L34.4223 57.7778L62.2223 30.0444C62.4306 29.8379 62.5959 29.5921 62.7087 29.3213C62.8216 29.0505 62.8796 28.76 62.8796 28.4667C62.8796 28.1733 62.8216 27.8828 62.7087 27.612C62.5959 27.3412 62.4306 27.0955 62.2223 26.8889Z" fill="url(#paint1_linear)"/>
<defs>
<linearGradient id="paint0_linear" x1="75.5554" y1="40.4501" x2="4.44421" y2="40.4501" gradientUnits="userSpaceOnUse">
<stop stop-color="#92D7FE"/>
<stop offset="1" stop-color="#BCFFC2"/>
</linearGradient>
<linearGradient id="paint1_linear" x1="62.8796" y1="42.2098" x2="17.1769" y2="42.2098" gradientUnits="userSpaceOnUse">
<stop stop-color="#92D7FE"/>
<stop offset="1" stop-color="#BCFFC2"/>
</linearGradient>
</defs>
</svg>
